<svg width="144" height="62" viewBox="0 0 144 62" fill="none" xmlns="http://www.w3.org/2000/svg">
<g clip-path="url(#clip0_3895_124)">
<path d="M26.6849 11C20.4921 25.8216 1.77144 23.3618 0.146131 36.4513C-0.110841 38.3754 0.130152 40.3332 0.846065 42.1375C1.56198 43.9419 2.72885 45.5323 4.23509 46.7568L10.7166 36.3366L5.25933 35.4587L24.7195 19.7197L15.8337 33.7741L22.5564 35.518L0.015625 50.996C0.015625 50.996 6.6355 48.3584 6.64341 48.3623C12.6226 50.6836 21.378 49.0781 25.6251 41.9323C35.0843 25.8888 26.6849 11 26.6849 11Z" fill="#4AAB3D"/>
<path d="M22.5408 35.5195L0 50.9975C0 50.9975 6.61985 48.3599 6.62776 48.3638C11.9822 50.4439 19.5591 49.3683 24.1226 43.9901C24.5774 43.4207 24.9688 42.8987 25.2654 42.4518C25.3762 42.2818 25.4869 42.1117 25.5897 41.9338C27.3257 38.8888 26.3292 36.5754 22.5408 35.5195Z" fill="#4AAB3D"/>
<path d="M26.6838 11C21.0803 24.4098 5.25033 23.6782 1.06249 33.1058C0.583991 34.2921 1.64378 34.7944 2.92109 35.083L5.25823 35.4587L24.7184 19.7197C28.1154 14.3376 26.6838 11 26.6838 11Z" fill="#4AAB3D"/>
</g>
<path d="M49.2973 42.192C48.6786 42.192 48.0386 42.1707 47.3773 42.128C46.7373 42.1067 46.0759 42.064 45.3933 42C44.7319 41.9147 44.1026 41.8293 43.5053 41.744C42.9079 41.6373 42.3639 41.52 41.8733 41.392V37.648C42.5133 37.712 43.2386 37.7653 44.0493 37.808C44.8599 37.8507 45.7026 37.8827 46.5773 37.904C47.4519 37.9253 48.2839 37.936 49.0733 37.936C49.8839 37.936 50.5773 37.872 51.1533 37.744C51.7506 37.5947 52.2093 37.3493 52.5293 37.008C52.8493 36.6453 53.0093 36.1547 53.0093 35.536V34.672C53.0093 33.968 52.7959 33.4347 52.3693 33.072C51.9639 32.688 51.3773 32.496 50.6093 32.496H48.5933C46.3319 32.496 44.5933 32.0053 43.3773 31.024C42.1826 30.0213 41.5853 28.3253 41.5853 25.936V24.784C41.5853 22.48 42.2466 20.7947 43.5693 19.728C44.8919 18.6613 46.7799 18.128 49.2333 18.128C50.1079 18.128 50.9719 18.1707 51.8253 18.256C52.6999 18.3413 53.5319 18.448 54.3213 18.576C55.1319 18.6827 55.8253 18.8 56.4013 18.928V22.672C55.4199 22.608 54.3213 22.544 53.1053 22.48C51.9106 22.416 50.8013 22.384 49.7773 22.384C49.0519 22.384 48.4013 22.4587 47.8253 22.608C47.2706 22.736 46.8439 22.992 46.5453 23.376C46.2466 23.76 46.0973 24.304 46.0973 25.008V25.648C46.0973 26.48 46.3319 27.0773 46.8013 27.44C47.2706 27.8027 47.9639 27.984 48.8813 27.984H51.2173C52.6466 27.984 53.8199 28.2507 54.7373 28.784C55.6759 29.296 56.3693 30.0107 56.8173 30.928C57.2866 31.8453 57.5213 32.8907 57.5213 34.064V35.408C57.5213 37.264 57.1693 38.6827 56.4653 39.664C55.7826 40.6453 54.8226 41.3173 53.5853 41.68C52.3693 42.0213 50.9399 42.192 49.2973 42.192ZM64.205 42.192C62.669 42.192 61.4637 41.744 60.589 40.848C59.7144 39.9307 59.277 38.64 59.277 36.976V24.816H64.013V35.568C64.013 36.528 64.237 37.1787 64.685 37.52C65.1544 37.84 65.7624 38 66.509 38C67.1064 38 67.7144 37.8933 68.333 37.68C68.973 37.4453 69.5384 37.136 70.029 36.752V24.816H74.797V42H70.861L70.029 40.24C69.261 40.752 68.3757 41.2107 67.373 41.616C66.3704 42 65.3144 42.192 64.205 42.192ZM76.9323 42V24.816H80.8363L81.6683 26.576C82.3083 26.0427 83.1083 25.5733 84.0683 25.168C85.0496 24.7413 86.0523 24.528 87.0763 24.528C88.4843 24.528 89.5723 24.8053 90.3403 25.36C91.1083 25.9147 91.6416 26.6613 91.9403 27.6C92.2603 28.5173 92.4203 29.5413 92.4203 30.672V42H87.6843V31.28C87.6843 30.7253 87.5776 30.2667 87.3643 29.904C87.1723 29.5413 86.8949 29.264 86.5323 29.072C86.1696 28.88 85.7323 28.784 85.2203 28.784C84.7723 28.784 84.3349 28.8373 83.9083 28.944C83.5029 29.0507 83.1083 29.2 82.7243 29.392C82.3616 29.584 82.0096 29.808 81.6683 30.064V42H76.9323ZM104.252 42.192C103.505 42.192 102.833 42.1067 102.236 41.936C101.638 41.7653 101.094 41.5413 100.604 41.264C100.134 40.9867 99.6862 40.688 99.2595 40.368L98.4915 42H94.5235V17.584H99.2595V26C99.9422 25.6373 100.71 25.3067 101.564 25.008C102.417 24.7093 103.238 24.56 104.028 24.56C105.5 24.56 106.673 24.8693 107.548 25.488C108.444 26.1067 109.094 27.0773 109.5 28.4C109.905 29.7013 110.108 31.4293 110.108 33.584C110.108 35.504 109.894 37.104 109.468 38.384C109.062 39.664 108.422 40.624 107.548 41.264C106.694 41.8827 105.596 42.192 104.252 42.192ZM102.492 38.32C103.046 38.32 103.537 38.1813 103.964 37.904C104.412 37.6053 104.753 37.0933 104.988 36.368C105.244 35.6427 105.372 34.64 105.372 33.36C105.372 31.8667 105.233 30.7787 104.956 30.096C104.7 29.392 104.348 28.9333 103.9 28.72C103.473 28.4853 103.004 28.368 102.492 28.368C101.852 28.368 101.254 28.4747 100.7 28.688C100.166 28.88 99.6862 29.0933 99.2595 29.328V37.488C99.6649 37.7013 100.124 37.8933 100.636 38.064C101.169 38.2347 101.788 38.32 102.492 38.32ZM119.034 42.16C117.136 42.16 115.621 41.9147 114.49 41.424C113.36 40.912 112.538 40.016 112.026 38.736C111.536 37.456 111.29 35.6853 111.29 33.424C111.29 31.0987 111.525 29.296 111.994 28.016C112.464 26.736 113.253 25.84 114.362 25.328C115.472 24.816 116.976 24.56 118.874 24.56C120.581 24.56 121.946 24.7307 122.97 25.072C123.994 25.4133 124.73 26.0107 125.178 26.864C125.648 27.7173 125.882 28.9227 125.882 30.48C125.882 31.632 125.648 32.5493 125.178 33.232C124.73 33.8933 124.09 34.3733 123.258 34.672C122.426 34.9493 121.445 35.088 120.314 35.088H115.994C116.037 35.9627 116.165 36.6667 116.378 37.2C116.613 37.712 117.029 38.0853 117.626 38.32C118.245 38.5333 119.13 38.64 120.282 38.64H125.306V41.424C124.474 41.5947 123.557 41.7653 122.554 41.936C121.573 42.0853 120.4 42.16 119.034 42.16ZM115.93 32.272H119.834C120.474 32.272 120.944 32.144 121.242 31.888C121.541 31.632 121.69 31.1733 121.69 30.512C121.69 29.8933 121.594 29.4027 121.402 29.04C121.21 28.656 120.912 28.3893 120.506 28.24C120.101 28.0693 119.557 27.984 118.874 27.984C118.149 27.984 117.573 28.112 117.146 28.368C116.72 28.6027 116.41 29.0293 116.218 29.648C116.026 30.2667 115.93 31.1413 115.93 32.272ZM134.782 42.16C132.883 42.16 131.368 41.9147 130.238 41.424C129.107 40.912 128.286 40.016 127.774 38.736C127.283 37.456 127.038 35.6853 127.038 33.424C127.038 31.0987 127.272 29.296 127.742 28.016C128.211 26.736 129 25.84 130.11 25.328C131.219 24.816 132.723 24.56 134.622 24.56C136.328 24.56 137.694 24.7307 138.718 25.072C139.742 25.4133 140.478 26.0107 140.926 26.864C141.395 27.7173 141.63 28.9227 141.63 30.48C141.63 31.632 141.395 32.5493 140.926 33.232C140.478 33.8933 139.838 34.3733 139.006 34.672C138.174 34.9493 137.192 35.088 136.062 35.088H131.742C131.784 35.9627 131.912 36.6667 132.126 37.2C132.36 37.712 132.776 38.0853 133.374 38.32C133.992 38.5333 134.878 38.64 136.03 38.64H141.054V41.424C140.222 41.5947 139.304 41.7653 138.302 41.936C137.32 42.0853 136.147 42.16 134.782 42.16ZM131.678 32.272H135.582C136.222 32.272 136.691 32.144 136.99 31.888C137.288 31.632 137.438 31.1733 137.438 30.512C137.438 29.8933 137.342 29.4027 137.15 29.04C136.958 28.656 136.659 28.3893 136.254 28.24C135.848 28.0693 135.304 27.984 134.622 27.984C133.896 27.984 133.32 28.112 132.894 28.368C132.467 28.6027 132.158 29.0293 131.966 29.648C131.774 30.2667 131.678 31.1413 131.678 32.272Z" fill="white"/>
<defs>
<clipPath id="clip0_3895_124">
<rect width="30.1137" height="40" fill="white" transform="translate(0 11)"/>
</clipPath>
</defs>
</svg>
