<svg width="65" height="65" viewBox="0 0 65 65" fill="none" xmlns="http://www.w3.org/2000/svg">
<ellipse opacity="0.6" cx="21.0811" cy="22.2857" rx="21.0811" ry="22.2857" fill="#E9E9E9"/>
<g clip-path="url(#clip0_3852_85)">
<path d="M28.4509 27.5473C28.7775 27.8927 29.3069 27.8925 29.6336 27.5473L31.5594 25.5115C31.886 25.1662 31.886 24.6065 31.5594 24.2612C31.2327 23.916 30.7032 23.916 30.3766 24.2612L28.4509 26.297C28.1244 26.6424 28.1244 27.2021 28.4509 27.5473ZM26.4087 24.1379L29.9532 20.3907C30.2798 20.0454 30.2798 19.4857 29.9531 19.1405C29.6266 18.7953 29.0971 18.7952 28.7705 19.1406L25.2259 22.8878C24.8993 23.233 24.8993 23.7927 25.226 24.138C25.5525 24.4833 26.0821 24.4833 26.4087 24.1379ZM61.6604 10.0497C61.3623 9.67688 60.8346 9.62972 60.482 9.94505C60.1292 10.2601 60.0848 10.818 60.3828 11.1909C62.2823 13.5675 63.3284 16.5927 63.3284 19.7092C63.3284 26.9913 57.724 32.9158 50.8356 32.9158C43.9471 32.9158 38.3429 26.9913 38.3429 19.7092C38.3429 12.4271 43.947 6.50258 50.8355 6.50258C53.2745 6.50258 55.6371 7.24547 57.6681 8.65096C58.0542 8.9182 58.5727 8.80409 58.8258 8.39539C59.0789 7.98682 58.9706 7.43891 58.5841 7.17144C56.2802 5.57722 53.6008 4.73438 50.8355 4.73438C43.0247 4.73438 36.6702 11.452 36.6702 19.7092C36.6702 27.9663 43.0247 34.684 50.8355 34.684C58.6463 34.684 65.0009 27.9663 65.0009 19.7092C65.001 16.1756 63.8146 12.7451 61.6604 10.0497ZM50.1692 41.7621L46.6247 45.5093C46.2981 45.8546 46.2981 46.4143 46.6248 46.7595C46.9514 47.1048 47.4808 47.1047 47.8074 46.7594L51.352 43.0122C51.6786 42.667 51.6786 42.1073 51.3519 41.762C51.0255 41.417 50.4959 41.4168 50.1692 41.7621ZM46.6018 27.545C46.2589 28.4821 46.6522 29.5224 47.5167 29.9648C48.1991 30.314 48.9799 30.2402 49.699 29.521C52.1468 27.0734 54.6427 24.5783 57.0841 22.1296C57.5397 21.6725 57.7612 21.0568 57.6917 20.4404C57.6213 19.8165 57.2628 19.2652 56.7081 18.9279C55.5225 18.2072 54.3403 17.4803 53.1564 16.7566C53.7989 15.1623 54.466 13.5157 55.0686 11.8698C55.2831 11.2839 55.2096 10.6257 54.8717 10.1089C54.1803 9.05105 52.8649 8.99541 51.9704 9.89531C49.4966 12.3837 47.0499 14.8195 44.5873 17.2856C44.1367 17.7368 43.9143 18.3488 43.9772 18.9641C44.0395 19.5732 44.3751 20.114 44.898 20.4477C46.1009 21.2156 47.3124 21.9373 48.5154 22.6641C47.8618 24.3138 47.2078 25.8889 46.6018 27.545ZM48.1617 28.1831C48.3507 27.6666 49.8428 23.8854 50.293 22.7587C50.4989 22.2433 50.3304 21.727 49.8637 21.443C49.4852 21.213 46.7371 19.556 45.7626 18.934C45.7202 18.907 45.6695 18.6376 45.7377 18.5692C46.8302 17.4752 53.0821 11.1377 53.3202 11.0214C53.4737 11.0345 53.544 11.1347 53.5087 11.2311C52.9687 12.705 51.5163 16.3149 51.38 16.6556C51.1762 17.1642 51.3472 17.6939 51.8053 17.9736C52.3599 18.312 55.071 19.9727 55.874 20.461C55.9649 20.5162 56.0012 20.778 55.9325 20.8468C53.9752 22.8097 48.5075 28.5073 48.2452 28.3733C48.1812 28.3405 48.1304 28.2687 48.1617 28.1831ZM44.5824 43.3502L46.5699 41.249C46.8965 40.9037 46.8965 40.3439 46.5698 39.9987C46.2433 39.6536 45.7138 39.6535 45.3871 39.9988L43.3996 42.1C43.073 42.4452 43.073 43.005 43.3997 43.3502C43.7263 43.6955 44.2558 43.6955 44.5824 43.3502ZM42.3056 45.3809C41.4019 44.4165 39.8752 44.4181 38.9728 45.3809L30.8093 54.011C27.3408 57.6779 21.6969 57.6779 18.2284 54.011C14.7598 50.3443 14.7598 44.3779 18.2284 40.7112L26.392 32.0812C27.3107 31.1098 27.3107 29.5294 26.392 28.5579L24.2698 26.3146C23.8247 25.8441 23.2329 25.585 22.6035 25.585C21.974 25.585 21.3822 25.8441 20.9371 26.3146L12.7735 34.9446C11.1424 36.6691 9.89147 38.6853 9.0556 40.9375C8.88677 41.392 9.09864 41.9051 9.52862 42.0834C9.95837 42.262 10.4439 42.0378 10.6126 41.5834C11.3639 39.5592 12.489 37.7463 13.9563 36.195L19.4133 30.4262L22.5027 33.6921L17.0456 39.4608C15.0495 41.5711 13.9502 44.3768 13.9502 47.3612C13.9502 50.3456 15.0494 53.1511 17.0456 55.2616C21.1664 59.6176 27.8714 59.6176 31.9922 55.2616L37.4491 49.4927L40.5383 52.7586L35.0814 58.5273C29.2572 64.6845 19.7802 64.6844 13.9562 58.5272C10.6947 55.0794 9.13878 50.3218 9.68741 45.474C9.74216 44.9893 9.41499 44.5492 8.95624 44.4912C8.49828 44.434 8.08135 44.7791 8.02648 45.2641C7.41653 50.6538 9.14681 55.9439 12.7734 59.7778C19.2497 66.6243 29.7876 66.6241 36.2642 59.7778L44.4276 51.1478C45.3463 50.1764 45.3463 48.5959 44.4276 47.6244L42.3056 45.3809ZM20.5961 29.1759L22.1198 27.565C22.3865 27.2829 22.8205 27.2829 23.0871 27.565L25.2092 29.8084C25.4759 30.0903 25.4759 30.5489 25.2092 30.8309L23.6854 32.4418L20.5961 29.1759ZM43.245 49.8973L41.7212 51.5081L38.632 48.2422L40.1557 46.6314C40.4171 46.3516 40.861 46.3517 41.1228 46.6314L43.245 48.8748C43.5117 49.1568 43.5117 49.6153 43.245 49.8973Z" fill="#4AAB3D"/>
</g>
<defs>
<clipPath id="clip0_3852_85">
<rect width="57.0946" height="60.3571" fill="white" transform="translate(7.90625 4.64062)"/>
</clipPath>
</defs>
</svg>
