<svg width="65" height="65" viewBox="0 0 65 65" fill="none" xmlns="http://www.w3.org/2000/svg">
<ellipse opacity="0.6" cx="21.6667" cy="21.9718" rx="21.6667" ry="21.9718" fill="#E9E9E9"/>
<g clip-path="url(#clip0_3852_92)">
<path d="M21.7354 30.0017C21.7354 30.4831 22.1202 30.8733 22.595 30.8733C23.0698 30.8733 23.4546 30.4831 23.4546 30.0017C23.4546 25.4334 25.9226 21.252 29.8954 19.0891C30.3137 18.8614 30.4708 18.3329 30.2463 17.9088C30.0216 17.4847 29.5006 17.3254 29.0823 17.5531C24.5505 20.0203 21.7354 24.7903 21.7354 30.0017ZM14.251 35.035C13.8178 33.2719 13.5981 31.4462 13.5981 29.6088C13.5981 25.0887 14.9204 20.734 17.4224 17.0154C19.8659 13.3835 23.2687 10.5818 27.2626 8.91326C27.7016 8.72986 27.9108 8.22045 27.73 7.77519C27.5493 7.33016 27.047 7.11771 26.6078 7.30122C22.3027 9.0998 18.6354 12.1192 16.0024 16.0328C13.3047 20.0421 11.8789 24.7367 11.8789 29.6088C11.8789 31.5881 12.1157 33.5556 12.583 35.4564C12.6987 35.9276 13.174 36.2054 13.6249 36.0915C14.0855 35.9751 14.3658 35.5021 14.251 35.035ZM41.4257 19.0891C45.3986 21.252 47.8666 25.4334 47.8666 30.0017C47.8666 30.4831 48.2513 30.8733 48.7262 30.8733C49.201 30.8733 49.5858 30.4831 49.5858 30.0017C49.5858 24.7903 46.7707 20.0203 42.2389 17.5531C41.8205 17.3254 41.2995 17.4846 41.0749 17.9088C40.8504 18.3329 41.0074 18.8613 41.4257 19.0891ZM29.9495 52.1442C30.0848 51.6827 29.8254 51.1974 29.3702 51.0604C26.4822 50.1906 23.8402 48.7507 21.5179 46.7807C21.1536 46.4719 20.6117 46.5208 20.307 46.89C20.0025 47.2593 20.0507 47.809 20.4147 48.1179C22.9182 50.2415 25.7665 51.7937 28.8808 52.7316C29.3242 52.8651 29.8128 52.6108 29.9495 52.1442ZM55.5425 40.0453L47.0181 32.697C45.7552 31.5973 44.0603 32.1139 43.1362 33.3444L40.4285 31.759C41.521 28.7733 39.6407 25.4293 36.5202 24.8914V21.5496C36.7952 21.4532 37.0621 21.3252 37.3149 21.1624C38.4042 20.4602 39.0545 19.2596 39.0545 17.9507V7.91245C39.0544 6.57796 37.9838 5.49219 36.6678 5.49219C35.5149 5.49219 34.5277 6.32691 34.3201 7.47696L32.307 18.6373C32.1023 19.7721 32.6788 20.9067 33.7088 21.3965C34.0606 21.5637 34.4287 21.6712 34.801 21.7227V24.8935C33.322 25.1518 32.0432 26.044 31.2807 27.3556C30.4756 28.7406 30.3843 30.3552 30.8934 31.7579L28.0368 33.431C27.8169 33.2373 27.5735 33.0668 27.3079 32.9263C26.1638 32.3208 24.8132 32.3501 23.6952 33.0044L15.1228 38.0235C13.9911 38.6767 13.5984 40.1863 14.2493 41.3296C14.8304 42.3504 16.0503 42.7871 17.118 42.399L27.6555 38.5868C28.7271 38.1992 29.4078 37.1256 29.3108 35.9761C29.2777 35.5838 29.1859 35.2069 29.0439 34.8544L31.7508 33.269C32.061 33.6483 32.4292 33.9877 32.8525 34.2716L32.0624 50.0936C32.0367 50.5902 32.4303 51.0094 32.9215 51.0094C33.3763 51.0094 33.756 50.6476 33.7792 50.1817L34.5374 34.9995C34.9063 35.0839 35.2797 35.128 35.6516 35.128C36.0336 35.128 36.413 35.0818 36.7834 34.9965L38.1947 63.2559H33.1264L33.5749 54.2775C33.599 53.7967 33.234 53.3872 32.7599 53.3628C32.286 53.3365 31.882 53.7086 31.858 54.1893L31.4051 63.2559H21.3746C20.8998 63.2559 20.515 63.6461 20.515 64.1275C20.515 64.6089 20.8998 64.9992 21.3746 64.9992H49.9456C50.4205 64.9992 50.8052 64.6089 50.8052 64.1275C50.8052 63.6461 50.4205 63.2559 49.9456 63.2559H39.9161L38.4685 34.2691C38.8754 33.9965 39.2463 33.661 39.568 33.2681L42.4243 34.9406C42.1186 36.5173 42.8352 38.1549 44.2309 38.9663L52.8034 43.9855C53.9304 44.6467 55.3984 44.268 56.0636 43.0995C56.64 42.087 56.4209 40.8026 55.5425 40.0453ZM27.0779 36.9449L16.5403 40.7571C16.2365 40.8673 15.8993 40.7412 15.7381 40.4579C15.5565 40.1391 15.667 39.7158 15.9824 39.5332L24.5549 34.5142C25.1705 34.1538 25.8841 34.1392 26.5126 34.4719C27.1419 34.805 27.5376 35.4073 27.5981 36.1246C27.6284 36.4856 27.4146 36.8231 27.0779 36.9449ZM34.4385 19.8179C34.1148 19.664 33.9337 19.3076 33.998 18.9511L36.0112 7.79076C36.0692 7.46905 36.3453 7.23567 36.6678 7.23567C37.0359 7.23567 37.3353 7.53937 37.3353 7.91257V17.9507C37.3353 18.6706 36.9917 19.3049 36.3925 19.6911C35.7936 20.0772 35.0813 20.1237 34.4385 19.8179ZM38.5587 31.7066C37.6166 33.3273 35.55 33.8687 33.9514 32.9131C32.3533 31.9576 31.8195 29.8617 32.7617 28.2408C33.3724 27.1904 34.4653 26.5613 35.6606 26.5613C35.6658 26.5613 35.6709 26.5606 35.6761 26.5605C38.1578 26.5167 39.8703 29.4502 38.5587 31.7066ZM54.5747 42.2278C54.3907 42.5511 53.9819 42.6621 53.6629 42.4756L45.0904 37.4564C43.8064 36.7194 43.7403 34.8146 44.9441 33.9787C45.2387 33.7742 45.6323 33.7905 45.9047 34.0253L54.429 41.3735C54.6746 41.5854 54.736 41.9447 54.5747 42.2278ZM35.6602 29.1021C35.1855 29.1021 34.8007 29.4924 34.8007 29.9738C34.8007 30.4552 35.1855 30.8454 35.6602 30.8454C36.1349 30.8454 36.5198 30.4552 36.5198 29.9738C36.5198 29.4924 36.1349 29.1021 35.6602 29.1021ZM49.8034 46.7805C47.4792 48.7513 44.8372 50.1912 41.9509 51.0604C41.4956 51.1974 41.2364 51.6827 41.3715 52.1442C41.5081 52.6104 41.9951 52.8657 42.4401 52.7316C45.5525 51.7942 48.4009 50.2421 50.9059 48.1181C51.2702 47.8092 51.3187 47.2595 51.014 46.8903C50.7099 46.5208 50.1676 46.4719 49.8034 46.7805ZM55.3188 16.0328C52.6856 12.1192 49.0183 9.0998 44.7132 7.30134C44.2745 7.11782 43.7718 7.33016 43.591 7.77531C43.4102 8.22045 43.6195 8.72997 44.0584 8.91338C48.0525 10.5819 51.4552 13.3836 53.8987 17.0155C56.4006 20.7341 57.723 25.0888 57.723 29.6089C57.723 31.4463 57.5033 33.2719 57.07 35.0351C56.9552 35.5022 57.2355 35.9753 57.6963 36.0917C58.1451 36.2051 58.6221 35.9289 58.7382 35.4567C59.2053 33.5558 59.4422 31.5884 59.4422 29.609C59.4422 24.7367 58.0165 20.0421 55.3188 16.0328Z" fill="#4AAB3D"/>
</g>
<defs>
<clipPath id="clip0_3852_92">
<rect width="58.6806" height="59.507" fill="white" transform="translate(6.32031 5.49219)"/>
</clipPath>
</defs>
</svg>
