<svg width="65" height="65" viewBox="0 0 65 65" fill="none" xmlns="http://www.w3.org/2000/svg">
<g clip-path="url(#clip0_3643_142)">
<path d="M62.9048 9.64256C62.4491 9.32289 61.8252 8.88529 61.7123 8.61373C61.5865 8.31095 61.7133 7.56295 61.8154 6.96195C62.0118 5.80427 62.2345 4.49222 61.3712 3.62894C60.5078 2.76554 59.1956 2.98808 58.0382 3.18461C57.4372 3.28655 56.689 3.41337 56.3863 3.28769C56.1147 3.17483 55.677 2.55086 55.3574 2.09523C54.6683 1.11312 53.8876 0 52.6219 0C51.3561 0 50.5754 1.11299 49.8865 2.09497C49.5669 2.55061 49.1293 3.17458 48.8577 3.28744C48.5549 3.41312 47.8069 3.28642 47.2059 3.18435C46.0483 2.98783 44.7362 2.76528 43.8729 3.62856C43.0096 4.49184 43.2322 5.80402 43.4286 6.9617C43.5305 7.56269 43.6575 8.3107 43.5317 8.61348C43.4188 8.88503 42.7948 9.32277 42.3392 9.64231C41.3572 10.3312 40.2441 11.112 40.2441 12.3776C40.2441 13.6432 41.3571 14.4241 42.3391 15.1129C42.7947 15.4326 43.4187 15.8702 43.5315 16.1418C43.6574 16.4446 43.5305 17.1926 43.4285 17.7936C43.2321 18.9512 43.0094 20.2633 43.8727 21.1266C44.736 21.9898 46.048 21.7673 47.2058 21.5709C47.8068 21.469 48.5548 21.3419 48.8576 21.4678C49.1291 21.5807 49.5669 22.2046 49.8864 22.6603C50.5753 23.6423 51.3561 24.7554 52.6217 24.7554C53.8873 24.7554 54.6682 23.6424 55.3571 22.6604C55.6767 22.2048 56.1143 21.5808 56.3859 21.4679C56.6888 21.3421 57.4367 21.4691 58.0377 21.571C59.1953 21.7676 60.5074 21.9901 61.3707 21.1268C62.234 20.2635 62.0114 18.9514 61.815 17.7938C61.7131 17.1928 61.5861 16.4448 61.7119 16.1419C61.8248 15.8703 62.4488 15.4326 62.9044 15.1131C63.8864 14.4242 64.9995 13.6433 64.9995 12.3778C64.9995 11.1122 63.8868 10.3314 62.9048 9.64256ZM61.8111 13.5543C61.0577 14.0829 60.2789 14.6291 59.9538 15.4112C59.617 16.2215 59.7801 17.1829 59.9378 18.1126C60.0139 18.5615 60.1923 19.6127 60.0245 19.7805C59.8565 19.9486 58.8055 19.77 58.3566 19.6938C57.427 19.536 56.4656 19.3731 55.6553 19.7098C54.8731 20.0349 54.3267 20.8138 53.7983 21.5671C53.4835 22.016 52.8974 22.8515 52.6219 22.8515C52.3464 22.8515 51.7604 22.0159 51.4454 21.5671C50.9169 20.8138 50.3706 20.0349 49.5885 19.7098C49.2395 19.5648 48.8628 19.5125 48.4724 19.5125C47.9562 19.5125 47.4166 19.604 46.8872 19.6939C46.4383 19.7701 45.3872 19.9483 45.2191 19.7805C45.0513 19.6127 45.2297 18.5614 45.3058 18.1126C45.4635 17.1829 45.6266 16.2216 45.2898 15.4113C44.9647 14.6291 44.1859 14.0827 43.4325 13.5543C42.9836 13.2395 42.1481 12.6534 42.1481 12.3779C42.1481 12.1024 42.9837 11.5164 43.4325 11.2014C44.1859 10.6729 44.9647 10.1266 45.2898 9.34447C45.6266 8.53414 45.4635 7.57285 45.3057 6.64318C45.2295 6.19427 45.0513 5.1431 45.2191 4.97515C45.3872 4.80731 46.4383 4.98568 46.887 5.06186C47.8166 5.21953 48.778 5.38254 49.5883 5.04586C50.3705 4.72073 50.9169 3.94188 51.4453 3.18854C51.7601 2.73964 52.3463 1.90416 52.6217 1.90416C52.8972 1.90416 53.4832 2.73976 53.7982 3.18854C54.3267 3.94188 54.873 4.72073 55.655 5.04586C56.4655 5.38266 57.4268 5.21953 58.3564 5.06186C58.8052 4.98568 59.8565 4.80757 60.0243 4.97515C60.1922 5.14298 60.0138 6.19427 59.9376 6.64305C59.78 7.57272 59.6168 8.53401 59.9536 9.34435C60.2788 10.1265 61.0576 10.6729 61.811 11.2013C62.2599 11.5161 63.0953 12.1023 63.0953 12.3778C63.0953 12.6532 62.2599 13.2394 61.8111 13.5543ZM33.5178 30.9094C33.5465 31.4359 34.0003 31.8363 34.5211 31.8075C35.0462 31.7784 35.4482 31.3292 35.4191 30.8042L34.8462 20.4503C34.8246 19.9825 34.4085 19.5399 33.8955 19.5508H7.2735C6.91054 19.5336 6.32694 19.9024 6.32275 20.4513L4.90139 46.6035C4.86609 47.1079 5.30065 47.6212 5.85214 47.6074H35.3168C35.8216 47.6165 36.3123 47.1511 36.2676 46.6035L35.6505 35.2478C35.6219 34.7227 35.1762 34.3201 34.648 34.3487C34.123 34.3772 33.7204 34.826 33.749 35.3511L33.8378 36.9856H26.2701L26.1515 30.1728H33.477L33.5178 30.9094ZM33.9413 38.8898L34.3116 45.7029H26.4219L26.3033 38.8898H33.9413ZM17.0741 21.455H24.0951L24.2137 28.2685H16.9554L17.0741 21.455ZM16.9223 30.1728H24.2468L24.3654 36.9856H16.8036L16.9223 30.1728ZM14.7472 45.7029H6.85747L7.22779 38.8898H14.8659L14.7472 45.7029ZM14.899 36.9855H7.33126L7.70158 30.1727H15.0177L14.899 36.9855ZM15.0509 28.2685H7.80505L8.17537 21.455H15.1694L15.0509 28.2685ZM16.6519 45.7029L16.7704 38.8898H24.3985L24.5172 45.7029H16.6519ZM26.1183 28.2685L25.9996 21.455H32.9946L33.3717 28.2685H26.1183ZM52.6219 6.98239C49.6467 6.98239 47.2264 9.40275 47.2264 12.3779C47.2264 15.353 49.6467 17.7734 52.6219 17.7734C55.597 17.7734 58.0174 15.353 58.0174 12.3779C58.0174 9.40275 55.597 6.98239 52.6219 6.98239ZM52.6219 15.8691C50.6968 15.8691 49.1307 14.303 49.1307 12.3779C49.1307 10.4528 50.6968 8.88668 52.6219 8.88668C54.547 8.88668 56.1131 10.4528 56.1131 12.3779C56.1131 14.303 54.547 15.8691 52.6219 15.8691ZM40.2171 63.0955H32.2199L31.1764 60.3822C30.6616 59.0436 29.3521 58.1443 27.9179 58.1443H25.0422V52.0506H35.9871C38.6519 52.0624 40.9013 49.7023 40.7407 47.0315L39.2505 19.6097C39.1133 17.085 37.0252 15.1074 34.4968 15.1074H18.1542C17.6284 15.1074 17.2021 15.5337 17.2021 16.0595C17.2021 16.5853 17.6284 17.0117 18.1542 17.0117H34.4968C36.0139 17.0117 37.2667 18.1983 37.3491 19.7131L38.8394 47.1348C38.9341 48.7341 37.5966 50.1553 35.9871 50.1463H5.18195C3.55861 50.1547 2.23411 48.74 2.32971 47.1348L3.82 19.7131C3.9024 18.1983 5.15529 17.0117 6.67238 17.0117H13.7947C14.3205 17.0117 14.7468 16.5853 14.7468 16.0595C14.7468 15.5337 14.3205 15.1074 13.7947 15.1074H6.67238C4.14399 15.1074 2.05587 17.085 1.91876 19.6097L0.428465 47.0315C0.265966 49.7012 2.48357 52.0672 5.18195 52.0506H16.1269V58.1443H13.2512C11.817 58.1443 10.5075 59.0436 9.9927 60.3822L8.94927 63.0955H0.952145C0.426307 63.0955 0 63.5218 0 64.0476C0 64.5734 0.426307 64.9997 0.952145 64.9997H9.59749C9.59927 64.9997 9.60117 65 9.60295 65C9.60409 65 9.60511 64.9997 9.60625 64.9997H40.2169C40.7428 64.9997 41.1691 64.5734 41.1691 64.0476C41.1691 63.5218 40.7429 63.0955 40.2171 63.0955ZM18.0313 52.0506H23.138V58.1443H18.0313V52.0506ZM10.9895 63.0955L11.7702 61.0659C12.0041 60.4575 12.5994 60.0486 13.2513 60.0486H27.9179C28.5698 60.0486 29.165 60.4574 29.3991 61.0659L30.1797 63.0955H10.9895Z" fill="white"/>
</g>
<defs>
<clipPath id="clip0_3643_142">
<rect width="65" height="65" fill="white"/>
</clipPath>
</defs>
</svg>
