<svg width="45" height="45" viewBox="0 0 45 45" fill="none" xmlns="http://www.w3.org/2000/svg">
<g clip-path="url(#clip0_3852_3638)">
<path d="M43.6691 41.2849C41.728 41.2849 40.7045 41.7791 39.8016 42.2151C38.9486 42.627 38.1428 43.0161 36.4988 43.0161C34.8548 43.0161 34.049 42.627 33.196 42.2151C32.2931 41.7791 31.2697 41.2849 29.3285 41.2849C27.3875 41.2849 26.3641 41.7791 25.4612 42.2151C24.6082 42.627 23.8025 43.0161 22.1586 43.0161C20.5147 43.0161 19.709 42.627 18.856 42.2151C17.9531 41.7791 16.9298 41.2849 14.9888 41.2849C13.0478 41.2849 12.0244 41.7791 11.1215 42.2151C10.2686 42.627 9.46288 43.0161 7.81896 43.0161C6.17503 43.0161 5.36934 42.627 4.51639 42.2151C3.61349 41.7791 2.59019 41.2849 0.649192 41.2849C0.290665 41.2849 0 41.5755 0 41.9341C0 42.2927 0.290665 42.5833 0.649192 42.5833C2.29312 42.5833 3.09881 42.9724 3.95176 43.3843C4.85466 43.8203 5.87796 44.3145 7.81896 44.3145C9.75995 44.3145 10.7833 43.8203 11.6862 43.3843C12.5392 42.9724 13.3449 42.5833 14.9888 42.5833C16.6327 42.5833 17.4384 42.9724 18.2914 43.3843C19.1943 43.8203 20.2176 44.3145 22.1585 44.3145C24.0995 44.3145 25.1229 43.8203 26.0258 43.3843C26.8788 42.9724 27.6845 42.5833 29.3284 42.5833C30.9724 42.5833 31.7782 42.9724 32.6313 43.3843C33.5341 43.8203 34.5575 44.3145 36.4987 44.3145C38.4399 44.3145 39.4633 43.8203 40.3662 43.3843C41.2192 42.9724 42.025 42.5833 43.669 42.5833C44.0275 42.5833 44.3182 42.2927 44.3182 41.9341C44.3182 41.5755 44.0276 41.2849 43.6691 41.2849ZM43.6691 33.1738C41.728 33.1738 40.7045 33.668 39.8016 34.104C38.9486 34.5159 38.1428 34.905 36.4988 34.905C34.8548 34.905 34.049 34.5159 33.196 34.104C32.3445 33.6928 31.3854 33.2301 29.651 33.1787L31.248 31.5817C31.5015 31.3282 31.5015 30.9171 31.248 30.6637C30.9944 30.4102 30.5834 30.4101 30.3299 30.6638L27.678 33.3158C26.7255 33.4941 26.0661 33.812 25.4613 34.104C24.6083 34.516 23.8026 34.9051 22.1587 34.9051C20.5148 34.9051 19.7091 34.516 18.8561 34.104C17.9532 33.6681 16.9299 33.1739 14.9889 33.1739C14.7727 33.1739 14.5685 33.1803 14.374 33.1918L9.18087 27.9987C10.2925 27.8348 11.0222 27.483 11.6863 27.1623C12.5394 26.7503 13.3451 26.3613 14.989 26.3613C16.6329 26.3613 17.4386 26.7503 18.2915 27.1623C19.1944 27.5983 20.2177 28.0924 22.1587 28.0924C24.0997 28.0924 25.123 27.5983 26.0259 27.1623C26.879 26.7503 27.6847 26.3613 29.3286 26.3613C30.9726 26.3613 31.7784 26.7503 32.6314 27.1623C32.89 27.2871 33.1585 27.4167 33.4556 27.5381L32.4484 28.5454C32.1948 28.7989 32.1948 29.21 32.4484 29.4635C32.7019 29.7169 33.113 29.717 33.3664 29.4634L34.8743 27.9553C35.3378 28.0403 35.8699 28.0924 36.4989 28.0924C38.44 28.0924 39.4634 27.5983 40.3663 27.1623C41.2194 26.7503 42.0251 26.3613 43.6692 26.3613C44.0277 26.3613 44.3183 26.0707 44.3183 25.7121C44.3183 25.3535 44.0277 25.0629 43.6692 25.0629C41.7281 25.0629 40.7046 25.557 39.8017 25.993C38.9487 26.405 38.1429 26.7941 36.4989 26.7941C36.34 26.7941 36.1912 26.7894 36.0472 26.7825L43.9378 18.8917C44.1831 18.6464 44.3182 18.3201 44.3182 17.973C44.3182 17.6258 44.1831 17.2996 43.9378 17.0544L41.5462 14.6628C41.301 14.4175 40.9747 14.2824 40.6275 14.2824C40.2804 14.2824 39.9541 14.4175 39.7088 14.6627L33.8268 20.5427L23.7721 10.4868L29.652 4.60606C30.1542 4.10861 30.1517 3.26345 29.652 2.76867L27.2604 0.376964C26.7631 -0.125337 25.9202 -0.125078 25.4231 0.376964L20.4027 5.3973C20.0393 4.21949 19.3928 3.14019 18.4964 2.24387C15.5046 -0.747956 10.6364 -0.747956 7.64454 2.24387C6.1952 3.69312 5.39704 5.62001 5.39704 7.66973C5.39704 9.71936 6.1952 11.6463 7.64454 13.0957C8.55774 14.0089 9.64622 14.6418 10.8023 14.9975L8.67182 17.1278C8.41829 17.3813 8.41829 17.7924 8.67182 18.0459C8.92535 18.2994 9.33633 18.2994 9.58995 18.0459L12.332 15.3042C14.5664 15.5188 16.8145 14.7776 18.4965 13.0957C19.9459 11.6463 20.744 9.71944 20.744 7.66973C20.744 7.42035 20.7317 7.17288 20.7084 6.92783L26.3424 1.29501L28.7339 3.68784L22.8549 9.56779C22.6086 9.8131 22.473 10.1397 22.473 10.4873C22.473 10.8348 22.6086 11.1614 22.8541 11.406L32.908 21.4599C33.1533 21.7061 33.4799 21.8417 33.8274 21.8417C34.175 21.8417 34.5015 21.7061 34.7461 21.4607L40.6281 15.5808L43.0197 17.9736L34.4705 26.5232C33.994 26.3773 33.5998 26.1881 33.196 25.993C32.2932 25.557 31.2698 25.0629 29.3286 25.0629C27.3876 25.0629 26.3642 25.557 25.4613 25.993C24.6083 26.405 23.8026 26.7941 22.1587 26.7941C20.5148 26.7941 19.7091 26.405 18.8561 25.993C17.9532 25.557 16.9299 25.0629 14.9889 25.0629C13.0479 25.0629 12.0245 25.557 11.1216 25.993C10.2963 26.3916 9.51283 26.7677 7.97381 26.7917L5.32891 24.1468C4.82151 23.6395 4.82151 22.8138 5.32891 22.3063L7.55114 20.0844C7.80467 19.8309 7.80476 19.4198 7.55123 19.1664C7.29778 18.9129 6.88672 18.9128 6.63318 19.1663L4.41087 21.3883C3.39727 22.402 3.39727 24.0514 4.41087 25.065L5.90228 26.5565C5.37462 26.4069 4.95134 26.2031 4.51647 25.9931C3.61358 25.5571 2.59028 25.063 0.649279 25.063C0.290751 25.063 8.65589e-05 25.3535 8.65589e-05 25.7122C8.65589e-05 26.0708 0.290751 26.3614 0.649279 26.3614C2.29321 26.3614 3.0989 26.7504 3.95185 27.1624C4.79251 27.5683 5.73808 28.0245 7.43117 28.0854L12.7872 33.4414C12.1176 33.6232 11.6024 33.8719 11.1215 34.1041C10.2686 34.5161 9.46288 34.9052 7.81896 34.9052C6.17503 34.9052 5.36934 34.5161 4.51639 34.1041C3.61349 33.6681 2.59019 33.174 0.649192 33.174C0.290665 33.174 0 33.4646 0 33.8232C0 34.1818 0.290665 34.4724 0.649192 34.4724C2.29312 34.4724 3.09881 34.8614 3.95176 35.2734C4.85466 35.7094 5.87796 36.2035 7.81896 36.2035C9.75995 36.2035 10.7833 35.7094 11.6862 35.2734C12.3231 34.9657 12.9341 34.6711 13.8871 34.5414L19.2496 39.9039C19.7564 40.4106 20.4222 40.6641 21.0879 40.6641C21.7536 40.6641 22.4195 40.4106 22.9263 39.9038L28.297 34.5329C28.6025 34.4945 28.9416 34.4724 29.3284 34.4724C30.9724 34.4724 31.7782 34.8614 32.6313 35.2734C33.5341 35.7094 34.5575 36.2035 36.4987 36.2035C38.4399 36.2035 39.4633 35.7094 40.3662 35.2734C41.2192 34.8614 42.025 34.4724 43.669 34.4724C44.0275 34.4724 44.3182 34.1818 44.3182 33.8232C44.3182 33.4646 44.0276 33.1738 43.6691 33.1738ZM6.69542 7.66973C6.69542 5.96685 7.35855 4.36595 8.56258 3.16183C10.8812 0.843171 14.5823 0.676718 17.096 2.726L8.12676 11.6953C7.19971 10.5611 6.69542 9.1543 6.69542 7.66973ZM17.5784 12.1775C15.2477 14.5081 11.5465 14.6534 9.04489 12.6134L18.0142 3.64413C18.9413 4.77831 19.4456 6.18524 19.4456 7.66973C19.4456 9.3726 18.7824 10.9735 17.5784 12.1775ZM22.0083 38.9856C21.5008 39.4931 20.6751 39.493 20.1677 38.9856L15.6809 34.4988C16.8766 34.5919 17.568 34.9239 18.2915 35.2733C19.1944 35.7093 20.2177 36.2034 22.1586 36.2034C23.7036 36.2034 24.6669 35.8904 25.4511 35.5427L22.0083 38.9856Z" fill="white"/>
</g>
<defs>
<clipPath id="clip0_3852_3638">
<rect width="44.3182" height="44.3182" fill="white"/>
</clipPath>
</defs>
</svg>
