<svg width="65" height="65" viewBox="0 0 65 65" fill="none" xmlns="http://www.w3.org/2000/svg">
<g clip-path="url(#clip0_3643_136)">
<path d="M64.0479 63.0957H56.3672V50.0679C61.207 49.5318 65 44.9552 65 39.4062C65 33.9487 61.3302 29.4342 56.6047 28.7768C57.5481 27.5935 58.1928 26.1711 58.4398 24.6257C58.5227 24.1065 58.169 23.6182 57.6498 23.5352C57.1288 23.4532 56.6422 23.806 56.5593 24.3252C56.1549 26.8564 54.3863 28.9608 52.006 29.8232C51.4375 30.0291 51.0138 30.5244 50.8998 31.1153C50.7229 32.0322 50.0782 34.2759 47.92 35.3088C46.0578 36.2 44.231 35.6538 43.5331 35.3779C42.3582 34.9115 41.5714 34.1498 41.0841 33.5206V29.4059L45.2437 25.2465C45.6155 24.8746 45.6155 24.2718 45.2437 23.8999C44.8717 23.5283 44.2688 23.5281 43.8972 23.8999L41.0842 26.7128V20.4087C41.0842 19.8828 40.658 19.4566 40.132 19.4566C39.6061 19.4566 39.1799 19.8828 39.1799 20.4087V24.8855L36.367 22.0726C35.995 21.7009 35.3922 21.7009 35.0204 22.0726C34.6486 22.4446 34.6486 23.0473 35.0204 23.4192L39.18 27.5788V33.5212C38.6907 34.1512 37.9027 34.9129 36.732 35.3776C36.0329 35.6539 34.2061 36.2003 32.3442 35.3092C31.4425 34.8771 30.7152 34.1894 30.1745 33.2691C30.3401 29.0606 29.1233 22.9101 27.3142 17.0162C27.5609 16.8827 27.8153 16.7624 28.0764 16.659C28.9245 16.3257 29.4402 15.4664 29.3311 14.5722C29.3109 14.4021 29.301 14.2375 29.301 14.0692C29.301 12.137 30.6094 10.464 32.4827 10.0004C33.3841 9.7773 34.0135 8.96797 34.0135 8.02242C34.0135 4.64902 36.7585 1.90455 40.1327 1.90455C43.5059 1.90455 46.2504 4.64902 46.2504 8.03258C46.2504 8.9681 46.8799 9.7773 47.7813 10.0005C49.8353 10.5089 51.188 12.4748 50.9331 14.5699C50.8242 15.4658 51.3396 16.3246 52.1873 16.6589C53.9694 17.3603 55.4065 18.7797 56.13 20.5527C56.3311 21.0454 56.8944 21.2692 57.3713 21.0746C57.8583 20.8759 58.0918 20.3202 57.8932 19.8334C56.9741 17.581 55.1486 15.7781 52.8852 14.8872C52.8472 14.8722 52.8194 14.8331 52.8238 14.7982C53.2055 11.7222 51.1958 8.88545 48.2389 8.15191C48.1909 8.13998 48.1548 8.08869 48.1548 8.02242C48.1546 3.59874 44.5558 0 40.1324 0C35.7082 0 32.109 3.59874 32.109 8.03232C32.109 8.08844 32.0729 8.13985 32.0252 8.15166C29.2999 8.82591 27.3965 11.2592 27.3965 14.0689C27.3965 14.3099 27.4111 14.5549 27.4404 14.7999C27.4601 14.9647 26.8539 15.1017 26.7213 15.1812C26.4843 14.4798 26.2394 13.79 25.9868 13.1192C21.9039 2.27614 17.8103 0 15.0951 0C10.3568 0 6.73321 6.67634 4.52766 12.2771C4.33494 12.7664 4.57539 13.3193 5.06467 13.512C5.55369 13.7048 6.10683 13.4643 6.29954 12.975C9.07004 5.93938 12.2759 1.9043 15.0951 1.9043C18.04 1.9043 21.3604 6.23657 24.2046 13.7903C26.884 20.9061 28.2859 28.5917 28.2859 32.5061C28.2859 40.338 22.8778 46.7732 16.0473 47.3247V39.5977C16.0473 39.5973 16.0473 39.5968 16.0473 39.5964V35.9558L20.021 31.982C20.3929 31.6101 20.3929 31.0073 20.021 30.6354C19.649 30.2637 19.0463 30.2637 18.6744 30.6354L16.0474 33.2625V29.2811C16.0474 28.7551 15.6212 28.329 15.0952 28.329C14.5693 28.329 14.1431 28.7551 14.1431 29.2811V35.5607V35.562V37.2983L11.5159 34.6712C11.1439 34.2994 10.5412 34.2994 10.1693 34.6712C9.79748 35.0431 9.79748 35.6459 10.1693 36.0177L14.1431 39.9915V47.3247C7.31237 46.7732 1.9043 40.338 1.9043 32.5061C1.9043 28.8267 3.08763 22.6261 4.84897 17.0766C5.00805 16.5755 4.73065 16.0401 4.22944 15.8811C3.72899 15.7224 3.19313 15.9995 3.03393 16.5006C1.19095 22.3074 0 28.59 0 32.5061C0 41.3934 6.26145 48.6861 14.143 49.2337V63.0957H0.952148C0.426182 63.0957 0 63.5219 0 64.0479C0 64.5738 0.426182 65 0.952148 65H64.0479C64.5738 65 65 64.5738 65 64.0479C65 63.5219 64.5738 63.0957 64.0479 63.0957ZM39.1798 63.0957H16.0473V49.2337C22.8929 48.7581 28.5156 43.1933 29.8754 35.9152C30.3643 36.3633 30.9135 36.735 31.5214 37.0264C34.0596 38.2415 36.5003 37.5163 37.433 37.1478C38.1101 36.879 38.6872 36.5361 39.1798 36.167V63.0957ZM54.4629 63.0957H41.0841V36.1677C41.5764 36.5363 42.1536 36.8791 42.8318 37.1483C43.3766 37.3636 44.4373 37.701 45.7321 37.701C45.8049 37.701 45.8301 38.8312 45.8301 39.4064C45.8301 44.9554 49.6231 49.5319 54.4629 50.068V63.0957ZM55.415 38.749C54.8891 38.749 54.4629 39.1752 54.4629 39.7012V44.9351V44.9363V48.1466C50.6758 47.6067 47.7344 43.8943 47.7344 39.4062C47.7344 38.7083 47.8066 38.0183 47.9471 37.3477C50.8625 36.3713 52.5366 32.954 52.749 31.5788C53.3948 31.3367 54.0019 31.0238 54.5628 30.6509C59.1864 30.055 63.0957 34.2537 63.0957 39.4062C63.0957 43.8943 60.1543 47.6067 56.3672 48.1466V45.3301L59.3778 42.3196C59.7496 41.9476 59.7496 41.3448 59.3778 40.973C59.0058 40.6013 58.403 40.6013 58.0312 40.973L56.3672 42.637V39.7012C56.3672 39.1752 55.941 38.749 55.415 38.749Z" fill="white"/>
</g>
<defs>
<clipPath id="clip0_3643_136">
<rect width="65" height="65" fill="white"/>
</clipPath>
</defs>
</svg>
