<svg width="45" height="45" viewBox="0 0 45 45" fill="none" xmlns="http://www.w3.org/2000/svg">
<g clip-path="url(#clip0_3852_3626)">
<path d="M39.3383 43.5196H10.2641C11.0684 42.1741 12.5321 41.3184 14.1461 41.3184C14.9488 41.3184 15.7372 41.5315 16.4261 41.9345C17.1919 42.3825 18.1807 42.124 18.6305 41.3584C19.5861 39.732 21.3502 38.7217 23.2346 38.7217C24.9635 38.7217 26.5926 39.5651 27.5927 40.9777C27.9985 41.5511 28.7183 41.7914 29.3839 41.5761C29.9124 41.4051 30.4644 41.3184 31.0249 41.3184C32.0762 41.3184 33.093 41.6236 33.9657 42.2013C34.2648 42.3991 34.6675 42.3172 34.8654 42.0182C35.0633 41.7192 34.9813 41.3164 34.6823 41.1185C33.5965 40.3998 32.3318 40.02 31.0249 40.02C30.3286 40.02 29.642 40.1279 28.9841 40.3409C28.8636 40.3797 28.7273 40.3333 28.6524 40.2275C27.7956 39.0171 26.567 38.1431 25.1824 37.7167C25.1824 36.9244 25.1824 35.4599 25.1823 33.7789C26.4617 33.4669 27.703 33.0262 28.8815 32.4686C30.6042 33.1972 33.4455 33.6723 35.5761 32.7317C37.4975 31.8833 39.0162 30.1158 39.8525 27.7548C40.7064 25.3441 40.7498 22.5107 39.9745 19.7766C39.8783 19.437 39.6179 19.1786 39.278 19.0852C38.9404 18.9924 38.5873 19.0806 38.3334 19.3212C37.7733 19.8516 37.1503 20.2667 36.4816 20.5548C35.3532 21.041 34.6269 20.9301 33.4907 21.1675C32.0114 21.4765 29.8583 22.3452 28.6587 23.7765C26.6185 26.2105 27.5702 29.9079 28.0838 31.4082C27.0357 31.8843 26.0447 32.2129 25.1822 32.4398C25.1821 29.2311 25.1819 25.6988 25.1816 24.6016C25.6016 24.2441 25.8687 23.7121 25.8687 23.1186V21.4544C28.4328 20.4108 30.2458 17.8931 30.2458 14.9585V8.68299C30.244 7.81784 29.5134 7.12104 28.6444 7.16822V2.66397C28.6444 1.47075 27.6737 0.5 26.4805 0.5C25.2873 0.5 24.3165 1.47075 24.3165 2.66397V7.16822H22.1526V2.66397C22.1526 1.47075 21.1818 0.5 19.9886 0.5C18.7954 0.5 17.8246 1.47075 17.8246 2.66397V7.16822C16.9622 7.13896 16.2248 7.80382 16.2233 8.68299V14.9585C16.2233 17.8928 18.0361 20.4104 20.5999 21.4542V23.1186C20.5999 23.6975 20.8557 24.2366 21.2871 24.6029V34.6306C20.4242 34.4036 19.433 34.075 18.3845 33.5985C18.5773 33.0326 18.8336 32.1491 18.9681 31.1326C19.251 28.9946 18.8506 27.2085 17.8103 25.9674C16.6107 24.5361 14.4577 23.6674 12.9784 23.3584C11.8374 23.12 11.1164 23.2321 9.98752 22.7456C9.31894 22.4576 8.69589 22.0425 8.13568 21.5121C7.88164 21.2716 7.52874 21.1834 7.19107 21.2761C6.85124 21.3695 6.59079 21.6279 6.49453 21.9674C5.71931 24.7016 5.76268 27.535 6.61658 29.9457C7.82347 33.353 10.4046 35.499 13.7219 35.499C15.2588 35.499 16.6521 35.0545 17.5876 34.6594C18.7661 35.217 20.0075 35.6578 21.287 35.9697V37.7185C19.7229 38.2019 18.3598 39.2555 17.5108 40.7007C17.4215 40.8528 17.2328 40.9023 17.0814 40.8137C16.1939 40.2945 15.1787 40.02 14.1457 40.02C11.8131 40.02 9.72343 41.4082 8.80669 43.5195H4.80153C4.44301 43.5195 4.15234 43.8102 4.15234 44.1687C4.15234 44.5273 4.44301 44.8179 4.80153 44.8179H9.24909C9.24978 44.8179 9.25047 44.8181 9.25116 44.8181C9.25186 44.8181 9.25264 44.8179 9.25333 44.8179H39.3383C39.6969 44.8179 39.9875 44.5273 39.9875 44.1687C39.9875 43.8102 39.6969 43.5196 39.3383 43.5196ZM29.654 24.6106C30.577 23.5093 32.3795 22.7261 33.7563 22.4385C34.1368 22.359 34.4749 22.3191 34.8019 22.2805C35.4493 22.2041 36.1186 22.125 36.9954 21.7472C37.6562 21.4625 38.278 21.0774 38.8494 20.5996C39.4207 22.9284 39.3453 25.2981 38.6286 27.3214C37.913 29.3419 36.6426 30.8415 35.0516 31.544C34.2417 31.9016 32.6542 32.3254 30.4241 31.6509C31.0934 31.2555 31.7351 30.8192 32.3458 30.3464C32.3904 30.3187 32.4323 30.2868 32.4695 30.2489C32.54 30.1932 32.6115 30.1388 32.6811 30.0821C33.0883 29.7509 33.4793 29.4031 33.8554 29.0411C34.1449 29.1036 34.4385 29.1358 34.7333 29.1358C34.799 29.1358 34.8649 29.1342 34.9307 29.1311C35.9008 29.0849 36.6477 28.7088 37.1035 28.4014C37.4008 28.2009 37.4792 27.7975 37.2787 27.5002C37.0782 27.2029 36.6748 27.1245 36.3774 27.325C36.0823 27.524 35.6135 27.764 35.0127 27.8234C35.8968 26.804 36.6729 25.6872 37.3326 24.481C37.5047 24.1664 37.3891 23.772 37.0746 23.5999C36.7601 23.4278 36.3656 23.5434 36.1935 23.8579C35.3463 25.407 34.2937 26.7975 33.0552 28.0089C33.0571 27.9928 33.0595 27.9767 33.0613 27.9606C33.1633 27.0549 33.146 26.1368 33.0099 25.2319C32.9565 24.8772 32.6259 24.6331 32.2713 24.6865C31.9168 24.7398 31.6726 25.0704 31.7259 25.425C31.8452 26.2179 31.8604 27.0222 31.771 27.8154C31.7109 28.35 31.6024 28.8819 31.4485 29.3995C30.7191 29.956 29.982 30.4254 29.2586 30.8209C29.0954 30.3168 28.8963 29.5889 28.7881 28.7713C28.5511 26.9787 28.8423 25.5788 29.654 24.6106ZM23.2346 37.4233C23.0168 37.4233 22.8002 37.4342 22.5856 37.4556V35.4607C22.5856 35.4594 22.5856 35.458 22.5856 35.4567V25.0662H23.8834C23.8836 26.6359 23.8838 30.232 23.8839 33.2674V33.2689C23.8839 35.0148 23.884 36.574 23.884 37.4559C23.6692 37.4346 23.4527 37.4233 23.2346 37.4233ZM24.5704 23.1186C24.5704 23.4766 24.2792 23.7678 23.9212 23.7678H22.5475C22.1929 23.7692 21.8968 23.4714 21.8983 23.1186V21.8405C22.3312 21.9244 22.7776 21.9698 23.2346 21.9698C23.6914 21.9698 24.1377 21.9245 24.5704 21.8407V23.1186ZM25.615 2.66397C25.615 2.18668 26.0033 1.79838 26.4806 1.79838C26.9579 1.79838 27.3462 2.18668 27.3462 2.66397V7.16822H25.615V2.66397ZM19.1231 2.66397C19.1231 2.18668 19.5114 1.79838 19.9887 1.79838C20.466 1.79838 20.8543 2.18668 20.8543 2.66397V7.16822H19.1231V2.66397ZM17.5218 14.9585V11.4961H23.7496C24.1082 11.4961 24.3988 11.2055 24.3988 10.847C24.3988 10.4884 24.1082 10.1978 23.7496 10.1978H17.5218V8.68299C17.5218 8.56371 17.6189 8.4666 17.7381 8.4666H28.7311C28.8504 8.4666 28.9475 8.56371 28.9475 8.68299V10.1978H26.7835C26.425 10.1978 26.1343 10.4884 26.1343 10.847C26.1343 11.2055 26.425 11.4961 26.7835 11.4961H28.9475V14.9585C28.9475 18.1086 26.3848 20.6714 23.2346 20.6714C20.0845 20.6714 17.5218 18.1086 17.5218 14.9585ZM17.6811 30.9622C17.573 31.7797 17.3739 32.5076 17.2107 33.0116C16.4873 32.616 15.7502 32.1465 15.0206 31.59C14.8668 31.0725 14.7584 30.5408 14.6982 30.0062C14.6089 29.213 14.6241 28.4087 14.7433 27.6159C14.7966 27.2613 14.5524 26.9307 14.1979 26.8774C13.8432 26.8239 13.5126 27.0682 13.4594 27.4228C13.3232 28.3277 13.3059 29.2459 13.4079 30.1515C13.4097 30.1676 13.412 30.1837 13.4139 30.1998C12.1753 28.9884 11.1228 27.598 10.2761 26.049C10.1041 25.7343 9.70975 25.6188 9.39511 25.7907C9.08047 25.9627 8.96483 26.3571 9.13682 26.6717C9.79622 27.878 10.5721 28.9948 11.4562 30.0141C10.8555 29.9548 10.3868 29.7148 10.0917 29.5158C9.79441 29.3153 9.39096 29.3937 9.19049 29.6909C8.99002 29.9882 9.06844 30.3917 9.3656 30.5922C9.82133 30.8996 10.5682 31.2757 11.5386 31.322C11.6043 31.3251 11.6701 31.3266 11.7359 31.3266C12.0307 31.3266 12.3243 31.2944 12.6138 31.232C12.9901 31.5941 13.3811 31.942 13.7885 32.2731C13.8578 32.3294 13.9289 32.3836 13.9991 32.439C14.0367 32.4775 14.0792 32.5101 14.1247 32.5379C14.735 33.0105 15.3765 33.4465 16.0453 33.8417C13.8151 34.5163 12.2275 34.0924 11.4176 33.7348C9.82661 33.0323 8.55619 31.5326 7.84052 29.5121C7.12381 27.4888 7.04859 25.1192 7.61979 22.7903C8.19126 23.2682 8.81301 23.6532 9.47371 23.9379C10.3505 24.3157 11.02 24.3948 11.6673 24.4712C11.9943 24.5098 12.3324 24.5497 12.7128 24.6292C14.0897 24.9168 15.8921 25.7001 16.8152 26.8013C17.627 27.7696 17.9182 29.1695 17.6811 30.9622Z" fill="white"/>
</g>
<defs>
<clipPath id="clip0_3852_3626">
<rect width="44.3182" height="44.3182" fill="white" transform="translate(0.183594 0.5)"/>
</clipPath>
</defs>
</svg>
