<svg width="45" height="45" viewBox="0 0 45 45" fill="none" xmlns="http://www.w3.org/2000/svg">
<g clip-path="url(#clip0_3852_3614)">
<path d="M29.9798 11.301C28.734 11.301 27.7204 12.3147 27.7204 13.5605C27.7204 14.8062 28.734 15.8199 29.9798 15.8199H38.9177C40.1634 15.8199 41.177 14.8062 41.177 13.5605C41.177 13.2164 41.0997 12.8902 40.9616 12.598H42.0587C43.3046 12.598 44.3181 11.5845 44.3181 10.3387C44.3181 9.09289 43.3046 8.07926 42.0587 8.07926H33.121C31.8751 8.07926 30.8615 9.09289 30.8615 10.3387C30.8615 10.6827 30.9388 11.0089 31.0769 11.301H29.9798ZM33.121 11.301C32.5902 11.301 32.1585 10.8693 32.1585 10.3387C32.1585 9.80795 32.5902 9.37623 33.121 9.37623H42.0588C42.5895 9.37623 43.0212 9.80795 43.0212 10.3387C43.0212 10.8693 42.5895 11.301 42.0588 11.301H38.9177C38.5595 11.301 38.2692 11.5913 38.2692 11.9495C38.2692 12.3077 38.5595 12.598 38.9177 12.598C39.4483 12.598 39.88 13.0297 39.88 13.5605C39.88 14.0912 39.4483 14.5229 38.9177 14.5229H29.9798C29.4491 14.5229 29.0174 14.0912 29.0174 13.5605C29.0174 13.0297 29.4491 12.598 29.9798 12.598H33.121C33.4791 12.598 33.7694 12.3077 33.7694 11.9495C33.7694 11.5913 33.4791 11.301 33.121 11.301ZM43.6216 43.1841H41.9746C40.7823 40.5768 39.7724 37.8863 39.0187 35.1241C38.9245 34.7786 38.5677 34.5747 38.2225 34.6692C37.877 34.7634 37.6733 35.1199 37.7675 35.4654C38.4876 38.1055 39.4309 40.692 40.5576 43.1841H31.4256C29.2316 38.4409 27.5704 33.4126 26.5968 28.2744C26.4668 27.5883 26.35 26.8995 26.2434 26.2092H36.148C36.3177 28.312 36.6175 30.4053 37.0471 32.4672C37.1207 32.8202 37.4706 33.0414 37.8142 32.9698C38.1648 32.8967 38.3899 32.5533 38.3168 32.2027C37.4947 28.2564 37.1578 24.1976 37.3194 20.1679C37.3454 19.5202 36.8139 18.8958 36.1017 18.9011H25.5579C25.503 17.331 25.5037 15.7577 25.5743 14.1883C25.6049 13.5076 25.0359 12.9179 24.3569 12.9212H9.46057C8.75606 12.8933 8.22309 13.7115 8.24323 14.1884C8.44236 18.9014 8.09866 23.6407 7.22061 28.2743C6.24407 33.428 4.58982 38.425 2.3918 43.184H0.648488C0.29035 43.184 0 43.4742 0 43.8325C0 44.1907 0.29035 44.481 0.648488 44.481C0.651255 44.4801 43.6159 44.481 43.6216 44.481C43.9798 44.481 44.2701 44.1907 44.2701 43.8325C44.2701 43.4742 43.9798 43.1841 43.6216 43.1841ZM36.0201 20.1982C35.9602 21.7682 35.9754 23.343 36.0594 24.9123H26.0564C25.85 23.3568 25.7037 21.793 25.6163 20.226C25.6158 20.2168 25.6154 20.2075 25.6148 20.1982H36.0201ZM3.8087 43.1841C5.94568 38.4933 7.53552 33.5789 8.49485 28.5159C8.92103 26.2668 9.22262 23.993 9.40134 21.7095H18.4081C18.7663 21.7095 19.0566 21.4193 19.0566 21.061C19.0566 20.7028 18.7663 20.4125 18.4081 20.4125H9.49006C9.60877 18.3515 9.62633 16.281 9.54237 14.2182H24.2751C24.1881 16.2793 24.2108 18.3531 24.3274 20.4125H21.4346C21.0765 20.4125 20.7861 20.7028 20.7861 21.061C20.7861 21.4193 21.0765 21.7095 21.4346 21.7095H24.4161C24.5182 23.0141 24.6608 24.3155 24.8438 25.6109C24.8461 25.6396 24.8497 25.6679 24.8555 25.6955C24.9901 26.6391 25.1452 27.5797 25.3226 28.5159C26.2811 33.5746 27.8711 38.5015 30.0087 43.1841H3.8087ZM16.3602 7.95146H25.2981C26.5439 7.95146 27.5574 6.93783 27.5574 5.69204C27.5574 5.348 27.4801 5.02177 27.3421 4.7296H28.4391C29.6849 4.7296 30.6985 3.71606 30.6985 2.47027C30.6985 1.22448 29.685 0.210938 28.4392 0.210938H19.5013C18.2555 0.210938 17.242 1.22457 17.242 2.47036C17.242 2.8144 17.3193 3.14055 17.4574 3.43271H16.3603C15.1145 3.43271 14.101 4.44634 14.101 5.69213C14.101 6.93792 15.1144 7.95146 16.3602 7.95146ZM16.3602 4.72969H19.5013C19.8595 4.72969 20.1498 4.43942 20.1498 4.0812C20.1498 3.72298 19.8595 3.43271 19.5013 3.43271C18.9707 3.43271 18.539 3.00099 18.539 2.47036C18.539 1.93963 18.9707 1.50791 19.5013 1.50791H28.4392C28.9699 1.50791 29.4016 1.93963 29.4016 2.47036C29.4016 3.00099 28.9699 3.43271 28.4392 3.43271H25.2981C24.94 3.43271 24.6496 3.72298 24.6496 4.0812C24.6496 4.43942 24.94 4.72969 25.2981 4.72969C25.8288 4.72969 26.2605 5.16141 26.2605 5.69213C26.2605 6.22285 25.8288 6.65449 25.2981 6.65449H16.3602C15.8296 6.65449 15.3979 6.22277 15.3979 5.69204C15.3979 5.16132 15.8296 4.72969 16.3602 4.72969ZM16.5377 24.4496C16.2225 24.2685 15.8439 24.2644 15.5247 24.4386C15.2066 24.6124 15.006 24.9321 14.9881 25.2938C14.9587 25.889 14.8377 26.4572 14.6288 26.9827C14.2494 27.9366 13.7498 28.3038 13.21 29.1287C12.499 30.2154 11.7188 32.0536 11.8601 33.6576C12.066 35.9966 14.1301 37.6662 16.1211 38.6479C15.9983 38.9922 15.8628 39.3328 15.7123 39.6684C15.5659 39.9952 15.712 40.379 16.0388 40.5254C16.3588 40.6689 16.7476 40.5298 16.8959 40.199C17.1041 39.7345 17.2878 39.2615 17.4479 38.7817C18.7427 38.239 20.7335 37.0844 21.5766 34.9078C22.223 33.2391 22.0827 31.2602 21.1814 29.3355C20.2655 27.3794 18.6164 25.6442 16.5377 24.4496ZM20.3671 34.4393C20.1113 35.0994 19.4686 36.2179 17.8989 37.1196C18.1021 36.1587 18.2114 35.1727 18.2249 34.1913L19.3912 32.8153C19.6227 32.542 19.589 32.1328 19.3157 31.9012C19.0425 31.6698 18.6332 31.7035 18.4017 31.9766L18.1323 32.2944C18.0359 31.4364 17.8663 30.5846 17.6227 29.7441C17.5229 29.4001 17.1632 29.2019 16.8194 29.3018C16.4753 29.4015 16.2773 29.7611 16.377 30.1052C16.7202 31.2894 16.9041 32.4977 16.9276 33.7137C16.5293 33.2565 16.0817 32.8423 15.592 32.4807C15.3038 32.2679 14.8978 32.3289 14.6851 32.6172C14.4723 32.9053 14.5334 33.3112 14.8215 33.524C15.3171 33.89 15.7624 34.3188 16.1449 34.7983C16.3946 35.1113 16.6165 35.4486 16.81 35.8009C16.7394 36.336 16.6364 36.8651 16.5044 37.3872C15.0108 36.6204 13.2858 35.0634 13.152 33.544C13.0471 32.3521 13.6507 30.8243 14.2954 29.839C14.8702 28.9605 15.3801 28.6028 15.8339 27.4621C16.0445 26.933 16.1834 26.3716 16.2489 25.7884C17.9295 26.8382 19.2554 28.2806 20.0069 29.8855C20.7565 31.4866 20.8845 33.1038 20.3671 34.4393Z" fill="white"/>
</g>
<defs>
<clipPath id="clip0_3852_3614">
<rect width="44.3182" height="44.3182" fill="white" transform="translate(0 0.183594)"/>
</clipPath>
</defs>
</svg>
