<svg width="65" height="65" viewBox="0 0 65 65" fill="none" xmlns="http://www.w3.org/2000/svg">
<g clip-path="url(#clip0_3643_139)">
<path d="M35.5038 37.247C37.4787 36.6615 39.1546 35.0552 40.3503 32.6016C40.9031 31.4673 41.2452 30.3853 41.4386 29.6574C41.97 29.7336 42.4998 29.829 43.0265 29.9473C43.5389 30.0625 44.0491 29.7402 44.1643 29.2271C44.2795 28.7141 43.9571 28.2046 43.4441 28.0894C42.7147 27.9256 41.9805 27.7995 41.2433 27.7095C40.0841 26.005 37.8409 23.478 34.4624 22.901C31.873 22.4587 29.066 23.2388 26.5601 25.0983C24.0133 26.9878 21.9988 29.8679 20.8875 33.2081C20.5393 34.2548 21.4493 35.3598 22.5549 35.1911C24.206 34.939 25.8133 35.2812 27.2554 36.009C29.569 37.1766 32.7262 38.0705 35.5038 37.247ZM28.1135 34.309C26.6589 33.5747 24.7283 33.0562 22.898 33.2324C23.9172 30.5075 25.6052 28.1779 27.6947 26.6276C29.7794 25.0808 32.0699 24.4242 34.1417 24.7781C35.1665 24.9532 36.9639 25.5512 38.72 27.5463C37.2778 27.5349 35.8273 27.6653 34.411 27.933L32.0902 26.6573C31.6292 26.404 31.0504 26.5721 30.797 27.0329C30.5436 27.4938 30.7119 28.0727 31.1727 28.3261L31.7087 28.6207C30.5024 29.0104 29.3263 29.5033 28.1882 30.0996C27.7222 30.3436 27.5425 30.919 27.7865 31.3849C28.0331 31.8559 28.6137 32.0264 29.0716 31.7866C30.6753 30.9465 32.3601 30.3288 34.1029 29.9395C33.5616 30.6463 33.0965 31.4113 32.7192 32.2216C32.4972 32.6983 32.7037 33.2648 33.1806 33.4867C33.6475 33.7041 34.2209 33.5078 34.4455 33.0254C34.8274 32.2053 35.3143 31.4391 35.8923 30.7487C36.27 30.2978 36.6903 29.8799 37.1406 29.4986C37.9311 29.4439 38.7227 29.4374 39.5125 29.4748C39.3341 30.092 39.0531 30.9164 38.6384 31.7676C37.6691 33.7565 36.4325 34.9859 34.9625 35.4217C32.7978 36.0632 30.063 35.293 28.1135 34.309ZM56.739 59.8579L55.486 43.2988C55.4439 42.7746 54.9843 42.3842 54.4608 42.426C53.9366 42.4681 53.5458 42.9272 53.588 43.4514L54.841 60.0105C54.9056 60.8145 54.6399 61.5837 54.0928 62.1765C53.5457 62.7692 52.8002 63.0957 51.9937 63.0957H13.0027C12.1961 63.0957 11.4506 62.7693 10.9036 62.1765C10.3565 61.5837 10.0909 60.8145 10.1554 60.0105L13.4458 19.0523C13.5117 18.2337 14.2065 17.5925 15.0277 17.5925H49.9688C50.79 17.5925 51.4849 18.2337 51.5507 19.0523L53.1543 39.0133C53.1964 39.5375 53.6555 39.9274 54.1796 39.8861C54.7037 39.844 55.0945 39.3849 55.0524 38.8607L53.4488 18.8997C53.3041 17.0988 51.7754 15.6881 49.9688 15.6881H45.4627V5.28266C45.4627 5.24229 45.5022 4.92809 45.1795 4.60537L40.862 0.283017C40.7726 0.188691 40.6241 0.000293088 40.1848 0.000293088H23.4059C23.2943 0.000293088 23.015 -0.0201463 22.7315 0.280351L18.409 4.60791C18.2682 4.76152 18.1239 4.98052 18.1284 5.28279V15.6882H15.0277C13.2211 15.6882 11.6924 17.0989 11.5477 18.8999L8.25736 59.8579C8.15123 61.1785 8.60559 62.4944 9.50403 63.468C10.4026 64.4416 11.6777 65 13.0027 65H51.9938C53.3188 65 54.5938 64.4417 55.4925 63.468C56.3908 62.4944 56.8452 61.1785 56.739 59.8579ZM41.1373 3.25333L43.5583 5.67723V15.6881H41.1373V3.25333ZM24.358 1.90446H39.233V4.33039H24.358V1.90446ZM20.0327 5.67698L22.4537 3.25307V12.1965C22.4537 12.7223 22.8799 13.1486 23.4059 13.1486C23.9318 13.1486 24.358 12.7223 24.358 12.1965V6.23481H39.233V15.6881H20.0327V5.67698ZM14.3075 50.2314C16.5995 55.9147 24.391 57.7457 30.2056 56.3768C31.2817 56.1234 31.7362 54.7626 31.0184 53.9167C30.4524 53.2496 30.0113 52.5193 29.7077 51.7466C29.3664 50.8776 29.314 50.2638 29.2477 49.4865C29.2114 49.0602 29.1703 48.5769 29.0731 48.023C28.7438 46.145 27.7343 43.3924 25.9726 41.8156C22.9939 39.1498 18.339 40.1586 16.3971 40.7468C16.183 40.2546 15.9864 39.7539 15.8107 39.2436C15.6395 38.7465 15.0987 38.4822 14.6004 38.6532C14.1033 38.8243 13.839 39.3661 14.0101 39.8634C14.2533 40.5702 14.5314 41.2613 14.8416 41.936C13.9993 43.8172 13.0258 47.0532 14.3075 50.2314ZM16.027 44.1695C16.7739 45.4043 17.6591 46.5692 18.6178 47.6343L18.7499 50.2792C18.7751 50.7883 19.196 51.1839 19.7 51.1839C20.2424 51.1839 20.6795 50.7274 20.6516 50.1843L20.6211 49.5734C21.586 50.3958 22.6228 51.1381 23.7278 51.794C24.1723 52.058 24.7613 51.9183 25.0326 51.4613C25.301 51.0091 25.1521 50.425 24.7 50.1565C23.1433 49.2324 21.7333 48.1226 20.4872 46.8434C21.3745 46.9337 22.2689 46.9274 23.1559 46.8233C23.6782 46.762 24.0519 46.289 23.9906 45.7667C23.9293 45.2444 23.4557 44.87 22.934 44.9321C22.0354 45.0375 21.1279 45.0253 20.2367 44.8954C19.6548 44.8108 19.0784 44.6723 18.5175 44.4889C18.0559 43.8448 17.6351 43.1745 17.2525 42.4827C17.8719 42.3106 18.7213 42.1168 19.6628 42.0233C21.8649 41.805 23.5598 42.2119 24.7024 43.2344C26.3722 44.7286 27.1668 47.4939 27.3501 49.6482C27.42 50.468 27.4922 51.3156 27.935 52.4428C28.2408 53.2211 28.6555 53.962 29.1709 54.6525C24.3186 55.6363 17.9537 54.1799 16.0735 49.5192C15.6849 48.5551 15.2504 46.7117 16.027 44.1695ZM36.298 56.4239C36.5819 56.8723 37.173 56.9968 37.6119 56.719C38.2429 56.3195 38.8491 55.8878 39.4337 55.4305C40.1562 55.5682 41.048 55.683 42.0275 55.683C43.7922 55.683 45.8318 55.3116 47.6317 54.0369C49.7758 52.5184 51.2085 49.9822 51.6656 46.8953C52.1304 43.7584 51.5184 40.2973 49.9424 37.1497C49.4429 36.1521 48.0179 36.0341 47.3612 36.9266C46.8425 37.6316 46.2337 38.2292 45.552 38.7028C44.3257 39.5548 43.3934 39.6123 42.0754 40.1795C40.3239 40.9334 37.8785 42.5509 36.7511 44.6288C34.8449 48.1416 36.9003 52.4382 37.9206 54.1923C37.4912 54.5143 37.0495 54.8214 36.5934 55.11C36.1489 55.3912 36.0167 55.9795 36.298 56.4239ZM38.4246 45.5372C39.2625 43.9931 41.2399 42.6122 42.8281 41.9288C44.2515 41.3163 45.1533 41.2984 46.6384 40.2667C47.325 39.7898 47.9504 39.2153 48.5032 38.5543C49.7094 41.2017 50.1632 44.0424 49.7818 46.6163C49.4014 49.184 48.2468 51.2676 46.5309 52.4828C45.6824 53.0839 43.9874 53.9324 41.3328 53.7626C42.3765 52.75 43.2818 51.635 44.1099 50.4422L46.653 49.7034C47.1581 49.5568 47.4484 49.0284 47.3016 48.5235C47.155 48.0183 46.6269 47.7279 46.1216 47.8748L45.5343 48.0454C46.112 46.9168 46.5949 45.7366 46.978 44.5103C47.135 44.0083 46.8551 43.4743 46.3533 43.3174C45.8513 43.161 45.3174 43.4403 45.1605 43.9423C44.6204 45.6701 43.8659 47.2983 42.9087 48.8061C42.7918 47.9235 42.5798 47.0536 42.2736 46.2138C42.0934 45.7199 41.5471 45.4653 41.0529 45.6455C40.5588 45.8256 40.3044 46.3721 40.4845 46.8662C40.7944 47.7162 40.9918 48.6021 41.0713 49.4994C41.1231 50.0842 41.1216 50.676 41.0727 51.2633C40.5521 51.8615 39.9969 52.4263 39.4118 52.9588C39.1014 52.3959 38.7171 51.6144 38.409 50.7204C37.6882 48.6286 37.6934 46.8847 38.4246 45.5372Z" fill="white"/>
</g>
<defs>
<clipPath id="clip0_3643_139">
<rect width="65" height="65" fill="white"/>
</clipPath>
</defs>
</svg>
