<svg width="65" height="65" viewBox="0 0 65 65" fill="none" xmlns="http://www.w3.org/2000/svg">
<g clip-path="url(#clip0_3868_3539)">
<path d="M8.08823 34.5551C7.45226 27.3978 9.95656 20.3742 14.9589 15.2854C18.6951 11.4857 23.4532 9.0574 28.719 8.26351C33.8082 7.49615 39.1088 8.36811 43.644 10.7192C43.952 10.8789 43.9868 11.1901 43.7438 11.4585L41.5501 13.656C40.093 15.1161 41.0972 17.7043 43.2242 17.7035H43.2294L54.6707 17.6798C55.9806 17.6767 57.0457 16.6093 57.0449 15.3L57.0331 3.87616C57.0526 1.77896 54.4024 0.753142 52.9792 2.20764L50.277 4.91428C50.1211 5.07055 49.8789 5.10203 49.7007 4.98943C42.8988 0.693353 34.7547 -0.903952 26.7694 0.492151C26.2514 0.58266 25.9048 1.07595 25.9955 1.59388C26.086 2.11192 26.5793 2.45847 27.0972 2.36784C34.6166 1.05374 42.2826 2.55635 48.6837 6.59918C49.6081 7.18349 50.845 7.04081 51.6248 6.25961L54.3269 3.55296C54.6859 3.23079 55.1076 3.43656 55.1291 3.8773L55.1409 15.3017C55.141 15.5625 54.9281 15.775 54.6666 15.7757L43.2255 15.7994H43.2242C42.7678 15.7779 42.5805 15.3491 42.8977 15.0013L45.0914 12.804C46.2063 11.7012 45.9056 9.74682 44.5204 9.02871C39.631 6.49407 33.9185 5.5542 28.4352 6.38071C22.7582 7.2368 17.6288 9.85434 13.6012 13.9506C8.20692 19.4382 5.50612 27.0097 6.1916 34.7239C6.24796 35.3578 6.0281 35.9741 5.58825 36.4144C4.99518 37.0083 4.17133 37.1926 3.38429 36.9082C2.61096 36.6285 2.1051 35.9739 2.03109 35.1573C1.21321 26.1359 4.38332 17.2989 10.7285 10.912C14.1559 7.46111 18.2251 4.94615 22.8228 3.43669C23.3225 3.27268 23.5945 2.73483 23.4305 2.23518C23.2665 1.73567 22.7289 1.46363 22.229 1.62752C17.3428 3.23167 13.0188 5.90392 9.37758 9.56999C2.63483 16.3572 -0.734074 25.7459 0.13446 35.329C0.274857 36.8775 1.27198 38.1688 2.73638 38.6985C3.18905 38.8622 3.65404 38.9421 4.11331 38.9421C5.15335 38.942 6.16418 38.5322 6.9356 37.7595C7.77443 36.9195 8.19461 35.7515 8.08823 34.5551ZM30.9834 52.0404C31.1182 52.1066 31.2611 52.138 31.402 52.138C31.7538 52.138 32.0921 51.9423 32.2575 51.6051C33.459 49.1567 34.751 45.7737 35.3798 41.693C37.7759 40.1582 41.5789 37.0205 42.4706 32.167C43.1335 28.5584 42.0786 24.6199 39.5007 21.0765C36.8607 17.448 32.8049 14.564 28.0805 12.9558C27.5203 12.7649 26.9152 12.8768 26.4621 13.255C26.0093 13.6328 25.791 14.2073 25.8781 14.792C26.2486 17.2779 25.6752 19.8045 24.5971 21.8753C24.3044 22.4375 24.0019 23.0187 23.7014 23.7463C22.6845 26.2096 21.814 30.2066 22.7072 33.3636C23.4781 36.0883 25.6757 38.4287 29.0623 40.1319C30.7723 40.9919 32.4317 41.5118 33.4365 41.781C32.8232 45.4655 31.6458 48.529 30.5479 50.7663C30.3164 51.2383 30.5113 51.8088 30.9834 52.0404ZM24.5395 32.8451C24.0265 31.0322 24.1127 27.7403 25.4616 24.4728C25.7297 23.8231 26.0126 23.2799 26.2861 22.7545C27.587 20.2554 28.1878 17.9267 27.8114 14.8783C32.0192 16.3813 35.6137 18.9704 37.961 22.1965C40.2289 25.3138 41.1655 28.7324 40.5977 31.8226C40.2962 33.4638 39.2484 36.4321 35.6706 39.1692C35.8737 36.5623 35.7162 33.621 35.2755 30.9625C35.7652 30.5103 36.188 29.9978 36.5347 29.4321C37.4159 27.9945 37.6057 26.5543 37.6095 25.5993C37.6116 25.0735 37.1871 24.6454 36.6612 24.6434H36.6573C36.1334 24.6434 35.7075 25.0671 35.7054 25.5917C35.7023 26.3466 35.4891 27.5933 34.7841 28.6346C34.1663 26.153 33.2625 23.7393 32.0748 21.419C31.8352 20.9508 31.2615 20.7657 30.7936 21.0053C30.3255 21.2448 30.1404 21.8184 30.3799 22.2865C31.9178 25.2911 32.9553 28.4596 33.4756 31.7328C33.3097 31.5794 33.1422 31.428 32.971 31.281C31.7502 30.2325 30.3929 29.3459 28.9367 28.6457C28.4632 28.418 27.894 28.6176 27.666 29.0913C27.4383 29.5652 27.6377 30.1341 28.1116 30.362C29.4182 30.99 30.6357 31.7853 31.7304 32.7255C32.4855 33.3739 33.1843 34.0953 33.8124 34.8717C33.9124 36.6279 33.8593 38.3009 33.6947 39.8773C31.3246 39.2121 25.7757 37.2145 24.5395 32.8451ZM63.9943 24.5462C63.6385 23.1493 62.594 22.0873 61.2 21.7052C59.792 21.3194 58.3342 21.7064 57.3013 22.7408C56.3106 23.7328 55.9095 25.1917 56.2541 26.5474C57.5658 31.7082 57.1397 37.2613 55.0539 42.1837C54.8488 42.6677 55.0749 43.2266 55.559 43.4316C56.0429 43.6369 56.6018 43.4108 56.807 42.9265C59.0541 37.6236 59.5131 31.64 58.0995 26.0783C57.9194 25.3694 58.1297 24.606 58.6488 24.0861C59.1916 23.5426 59.9578 23.3388 60.6966 23.5417C61.4215 23.7403 61.9645 24.2915 62.1491 25.0162C63.6009 30.715 63.3791 36.6924 61.508 42.3025C59.591 48.0501 56.0462 53.0433 51.2567 56.7418C45.7322 61.0068 38.845 63.259 31.87 63.0845C24.9926 62.9122 18.3215 60.4098 13.0846 56.0381C12.2445 55.3373 11 55.3165 10.1255 55.9886L7.09314 58.3183C6.71295 58.5827 6.30153 58.3589 6.34101 57.8913L7.8327 46.5582C7.86697 46.2989 8.10626 46.1152 8.36573 46.1492L19.7029 47.6274C20.1717 47.7129 20.2716 48.1636 19.9226 48.4624L17.4594 50.3545C16.2091 51.2972 16.2319 53.265 17.5291 54.1725C22.0399 57.3284 27.5718 59.0095 33.118 58.9107C38.8553 58.8068 44.2814 56.8835 48.8098 53.3489C51.0957 51.5649 53.0539 49.4347 54.6298 47.0173C54.9169 46.5769 54.7925 45.9871 54.352 45.6998C53.9112 45.4124 53.3218 45.537 53.0345 45.9776C51.5737 48.2183 49.758 50.1934 47.6382 51.848C43.4376 55.1266 38.4048 56.9107 33.0834 57.0071C27.9401 57.0964 22.8042 55.5396 18.6199 52.6119C18.341 52.4168 18.3404 52.0989 18.6192 51.8647L21.0827 49.9724C22.744 48.7184 21.9587 45.9816 19.9493 45.7393L8.61187 44.2609C7.31364 44.092 6.1167 45.0105 5.94508 46.3093L4.45326 57.643C4.3281 58.5964 4.78471 59.5229 5.61681 60.0033C6.45158 60.4851 7.48602 60.4172 8.25275 59.8288L11.2858 57.4986C11.4599 57.3649 11.7037 57.3657 11.8649 57.5003C17.4299 62.146 24.5175 64.8051 31.8225 64.9881C39.2214 65.1734 46.5534 62.78 52.4206 58.2491C57.5105 54.3185 61.2775 49.0126 63.3146 42.9051C65.3014 36.9478 65.5364 30.5995 63.9943 24.5462Z" fill="#4AAB3D"/>
</g>
<defs>
<clipPath id="clip0_3868_3539">
<rect width="65" height="65" fill="white"/>
</clipPath>
</defs>
</svg>
