<svg width="65" height="65" viewBox="0 0 65 65" fill="none" xmlns="http://www.w3.org/2000/svg">
<path d="M57.4303 63.0955H14.7881C15.9677 61.122 18.1145 59.8671 20.4817 59.8671C21.659 59.8671 22.8153 60.1795 23.8257 60.7706C24.9489 61.4277 26.3992 61.0486 27.0588 59.9257C28.4604 57.5403 31.0478 56.0585 33.8116 56.0585C36.3472 56.0585 38.7366 57.2955 40.2034 59.3674C40.7985 60.2083 41.8543 60.5607 42.8305 60.245C43.6056 59.9941 44.4153 59.8669 45.2373 59.8669C46.7791 59.8669 48.2706 60.3147 49.5505 61.1618C49.9891 61.4521 50.5797 61.3318 50.8701 60.8933C51.1603 60.4548 51.0401 59.864 50.6016 59.5738C49.0089 58.5197 47.154 57.9626 45.2373 57.9626C44.2161 57.9626 43.209 58.1209 42.2441 58.4333C42.0674 58.4903 41.8675 58.4222 41.7577 58.2671C40.501 56.4918 38.699 55.2099 36.6682 54.5846C36.6682 53.4224 36.6682 51.2745 36.6681 48.8091C38.5446 48.3514 40.3652 47.7051 42.0937 46.8873C44.6203 47.9559 48.7875 48.6527 51.9123 47.2731C54.7304 46.0288 56.9579 43.4365 58.1844 39.9737C59.4368 36.4379 59.5004 32.2824 58.3634 28.2724C58.2223 27.7743 57.8404 27.3952 57.3419 27.2583C56.8467 27.1222 56.3289 27.2515 55.9564 27.6045C55.1349 28.3824 54.2212 28.9912 53.2404 29.4137C51.5854 30.1267 50.5203 29.9641 48.8538 30.3124C46.6842 30.7656 43.5264 32.0397 41.7669 34.1388C38.7747 37.7087 40.1704 43.1316 40.9237 45.332C39.3864 46.0304 37.9331 46.5123 36.668 46.845C36.6679 42.139 36.6676 36.9582 36.6671 35.3489C37.2831 34.8246 37.6749 34.0444 37.6749 33.174V30.7331C41.4356 29.2025 44.0946 25.5099 44.0946 21.2058V12.0017C44.0919 10.7328 43.0205 9.71086 41.746 9.78005V3.17382C41.746 1.42377 40.3222 0 38.5722 0C36.8221 0 35.3983 1.42377 35.3983 3.17382V9.78005H32.2245V3.17382C32.2245 1.42377 30.8008 0 29.0507 0C27.3007 0 25.8769 1.42377 25.8769 3.17382V9.78005C24.6119 9.73714 23.5306 10.7123 23.5283 12.0017V21.2058C23.5283 25.5095 26.187 29.2019 29.9472 30.7328V33.174C29.9472 34.0231 30.3225 34.8137 30.9553 35.351V50.0582C29.6897 49.7253 28.2358 49.2433 26.698 48.5445C26.9809 47.7145 27.3568 46.4187 27.5541 44.9278C27.9689 41.792 27.3817 39.1725 25.8559 37.3521C24.0965 35.253 20.9387 33.9789 18.7691 33.5257C17.0957 33.176 16.0382 33.3404 14.3825 32.627C13.4019 32.2045 12.4881 31.5957 11.6665 30.8178C11.2938 30.4651 10.7763 30.3356 10.281 30.4716C9.7826 30.6085 9.4006 30.9876 9.25943 31.4855C8.12244 35.4957 8.18605 39.6514 9.43843 43.187C11.2085 48.1844 14.9941 51.3319 19.8596 51.3319C22.1136 51.3319 24.1572 50.68 25.5293 50.1005C27.2578 50.9183 29.0784 51.5647 30.955 52.0223V54.5871C28.661 55.2961 26.6618 56.8414 25.4166 58.961C25.2857 59.1841 25.0089 59.2567 24.7869 59.1268C23.4851 58.3652 21.9962 57.9626 20.4812 57.9626C17.06 57.9626 13.9951 59.9987 12.6506 63.0953H6.77636C6.25053 63.0953 5.82422 63.5216 5.82422 64.0475C5.82422 64.5733 6.25053 64.9996 6.77636 64.9996H13.2994C13.3005 64.9996 13.3015 64.9999 13.3025 64.9999C13.3035 64.9999 13.3046 64.9996 13.3057 64.9996H57.4303C57.9562 64.9996 58.3825 64.5733 58.3825 64.0475C58.3825 63.5216 57.9562 63.0955 57.4303 63.0955ZM43.2266 35.3621C44.5804 33.7469 47.224 32.5983 49.2434 32.1764C49.8014 32.0599 50.2972 32.0013 50.7769 31.9447C51.7264 31.8326 52.7081 31.7167 53.9941 31.1626C54.9633 30.745 55.8752 30.1802 56.7132 29.4794C57.5511 32.895 57.4406 36.3705 56.3895 39.3381C55.3398 42.3014 53.4767 44.5008 51.1431 45.5312C49.9552 46.0556 47.6269 46.6773 44.3561 45.688C45.3377 45.108 46.2789 44.4682 47.1746 43.7747C47.2401 43.7342 47.3015 43.6873 47.356 43.6317C47.4595 43.5501 47.5643 43.4702 47.6664 43.3871C48.2636 42.9014 48.837 42.3913 49.3886 41.8603C49.8133 41.952 50.2439 41.9991 50.6763 41.9991C50.7727 41.9991 50.8693 41.9968 50.9658 41.9922C52.3887 41.9245 53.4841 41.3728 54.1525 40.922C54.5886 40.628 54.7037 40.0363 54.4095 39.6003C54.1155 39.1643 53.5238 39.0492 53.0877 39.3434C52.6549 39.6352 51.9672 39.9872 51.0861 40.0742C52.3828 38.5793 53.5211 36.9412 54.4886 35.1721C54.741 34.7108 54.5715 34.1322 54.1101 33.8798C53.6489 33.6275 53.0703 33.797 52.8179 34.2583C51.5754 36.5302 50.0315 38.5696 48.2151 40.3464C48.2179 40.3228 48.2213 40.2992 48.224 40.2756C48.3737 38.9472 48.3483 37.6006 48.1486 36.2734C48.0704 35.7533 47.5854 35.3953 47.0654 35.4735C46.5454 35.5517 46.1873 36.0366 46.2655 36.5566C46.4404 37.7197 46.4628 38.8992 46.3316 40.0626C46.2434 40.8466 46.0843 41.6268 45.8586 42.3859C44.7888 43.2021 43.7078 43.8906 42.6467 44.4706C42.4074 43.7314 42.1154 42.6637 41.9567 41.4646C41.609 38.8354 42.0362 36.7822 43.2266 35.3621ZM33.8116 54.1542C33.492 54.1542 33.1744 54.1702 32.8597 54.2015V51.2757C32.8597 51.2738 32.8597 51.2717 32.8597 51.2698V36.0304H34.7631C34.7635 38.3326 34.7637 43.607 34.7638 48.0588V48.0611C34.7638 50.6217 34.764 52.9085 34.764 54.2019C34.449 54.1708 34.1314 54.1542 33.8116 54.1542ZM35.7707 33.174C35.7707 33.6991 35.3436 34.1261 34.8186 34.1261H32.8038C32.2837 34.1282 31.8494 33.6913 31.8517 33.174V31.2994C32.4866 31.4224 33.1413 31.4891 33.8116 31.4891C34.4815 31.4891 35.1361 31.4226 35.7707 31.2997V33.174ZM37.3028 3.17382C37.3028 2.4738 37.8723 1.90429 38.5723 1.90429C39.2723 1.90429 39.8418 2.4738 39.8418 3.17382V9.78005H37.3028V3.17382ZM27.7813 3.17382C27.7813 2.4738 28.3508 1.90429 29.0508 1.90429C29.7509 1.90429 30.3204 2.4738 30.3204 3.17382V9.78005H27.7813V3.17382ZM25.4327 21.2058V16.1277H34.5669C35.0928 16.1277 35.5191 15.7014 35.5191 15.1755C35.5191 14.6497 35.0928 14.2234 34.5669 14.2234H25.4327V12.0017C25.4327 11.8268 25.5751 11.6843 25.7501 11.6843H41.8731C42.048 11.6843 42.1904 11.8268 42.1904 12.0017V14.2234H39.0166C38.4908 14.2234 38.0645 14.6497 38.0645 15.1755C38.0645 15.7014 38.4908 16.1277 39.0166 16.1277H42.1904V21.2058C42.1904 25.826 38.4318 29.5847 33.8116 29.5847C29.1914 29.5847 25.4327 25.826 25.4327 21.2058ZM25.6664 44.6779C25.5078 45.8769 25.2159 46.9444 24.9765 47.6837C23.9155 47.1035 22.8343 46.4149 21.7644 45.5987C21.5388 44.8397 21.3797 44.0598 21.2915 43.2757C21.1605 42.1123 21.1828 40.9328 21.3576 39.7699C21.4358 39.2499 21.0777 38.765 20.5577 38.6868C20.0375 38.6083 19.5526 38.9667 19.4745 39.4867C19.2749 40.814 19.2495 42.1606 19.399 43.4889C19.4017 43.5125 19.4051 43.5361 19.4079 43.5597C17.5912 41.783 16.0476 39.7437 14.8057 37.4718C14.5535 37.0104 13.9751 36.8409 13.5136 37.093C13.0521 37.3453 12.8825 37.9238 13.1348 38.3851C14.1019 40.1544 15.2399 41.7924 16.5366 43.2874C15.6556 43.2003 14.9681 42.8484 14.5353 42.5566C14.0992 42.2624 13.5075 42.3774 13.2135 42.8134C12.9195 43.2493 13.0345 43.8412 13.4703 44.1352C14.1387 44.586 15.2342 45.1378 16.6573 45.2055C16.7538 45.2101 16.8503 45.2124 16.9468 45.2124C17.3792 45.2124 17.8097 45.1652 18.2343 45.0736C18.7862 45.6047 19.3598 46.1149 19.9572 46.6005C20.0589 46.6832 20.1631 46.7626 20.2661 46.8439C20.3213 46.9004 20.3837 46.9481 20.4503 46.989C21.3454 47.6821 22.2863 48.3216 23.2673 48.9011C19.9963 49.8906 17.6678 49.2688 16.4799 48.7444C14.1465 47.714 12.2832 45.5145 11.2335 42.5511C10.1824 39.5836 10.0721 36.1081 10.9098 32.6925C11.748 33.3934 12.6599 33.958 13.6289 34.3756C14.9149 34.9297 15.8968 35.0457 16.8461 35.1578C17.3257 35.2144 17.8216 35.2729 18.3796 35.3894C20.399 35.8113 23.0425 36.9601 24.3964 38.5752C25.5871 39.9954 26.0141 42.0486 25.6664 44.6779Z" fill="#4AAB3D"/>
</svg>
