<svg width="65" height="65" viewBox="0 0 65 65" fill="none" xmlns="http://www.w3.org/2000/svg">
<g clip-path="url(#clip0_3868_3518)">
<path d="M43.9703 16.3045C42.1432 16.3045 40.6566 17.7912 40.6566 19.6183C40.6566 21.4455 42.1432 22.9322 43.9703 22.9322H57.0792C58.9064 22.9322 60.3929 21.4455 60.3929 19.6183C60.3929 19.1137 60.2795 18.6353 60.077 18.2068H61.6861C63.5133 18.2068 64.9999 16.7202 64.9999 14.8931C64.9999 13.0659 63.5133 11.5793 61.6861 11.5793H48.5774C46.7501 11.5793 45.2636 13.0659 45.2636 14.8931C45.2636 15.3977 45.377 15.876 45.5795 16.3045H43.9703ZM48.5774 16.3045C47.799 16.3045 47.1658 15.6713 47.1658 14.8931C47.1658 14.1147 47.799 13.4815 48.5774 13.4815H61.6862C62.4646 13.4815 63.0978 14.1147 63.0978 14.8931C63.0978 15.6713 62.4646 16.3045 61.6862 16.3045H57.0792C56.554 16.3045 56.1281 16.7303 56.1281 17.2556C56.1281 17.781 56.554 18.2068 57.0792 18.2068C57.8575 18.2068 58.4907 18.84 58.4907 19.6183C58.4907 20.3967 57.8575 21.0299 57.0792 21.0299H43.9703C43.1921 21.0299 42.5589 20.3967 42.5589 19.6183C42.5589 18.84 43.1921 18.2068 43.9703 18.2068H48.5774C49.1027 18.2068 49.5285 17.781 49.5285 17.2556C49.5285 16.7303 49.1027 16.3045 48.5774 16.3045ZM63.9784 63.0663H61.5628C59.814 59.2423 58.3329 55.2962 57.2275 51.2451C57.0893 50.7383 56.566 50.4393 56.0596 50.5778C55.5529 50.716 55.2541 51.2389 55.3923 51.7456C56.4485 55.6178 57.832 59.4112 59.4845 63.0663H46.0909C42.873 56.1096 40.4366 48.7348 39.0087 41.1988C38.8179 40.1925 38.6466 39.1823 38.4904 38.1698H53.0171C53.2659 41.2539 53.7057 44.3241 54.3357 47.3482C54.4436 47.866 54.9569 48.1904 55.4608 48.0854C55.9751 47.9782 56.3052 47.4745 56.198 46.9603C54.9922 41.1724 54.4982 35.2196 54.7352 29.3092C54.7732 28.3594 53.9937 27.4435 52.9491 27.4514H37.4849C37.4045 25.1485 37.4055 22.841 37.509 20.5392C37.5538 19.5409 36.7193 18.676 35.7235 18.6808H13.8755C12.8422 18.6398 12.0605 19.8399 12.0901 20.5394C12.3821 27.4517 11.878 34.4027 10.5902 41.1987C9.15798 48.7575 6.73174 56.0864 3.50797 63.0662H0.951116C0.425846 63.0662 0 63.4919 0 64.0173C0 64.5427 0.425846 64.9684 0.951116 64.9684C0.955174 64.9672 63.97 64.9684 63.9784 64.9684C64.5036 64.9684 64.9295 64.5427 64.9295 64.0173C64.9295 63.4919 64.5036 63.0663 63.9784 63.0663ZM52.8295 29.3537C52.7416 31.6564 52.764 33.9661 52.8871 36.2677H38.2161C37.9134 33.9863 37.6988 31.6927 37.5706 29.3945C37.5698 29.381 37.5692 29.3673 37.5684 29.3537H52.8295ZM5.58609 63.0663C8.72034 56.1865 11.0521 48.9788 12.4591 41.553C13.0842 38.2542 13.5265 34.9194 13.7886 31.5703H26.9986C27.5239 31.5703 27.9497 31.1446 27.9497 30.6192C27.9497 30.0938 27.5239 29.6681 26.9986 29.6681H13.9188C14.0929 26.6452 14.1186 23.6085 13.9955 20.583H35.6034C35.4758 23.6061 35.5092 26.6476 35.6801 29.6681H31.4374C30.9121 29.6681 30.4863 30.0938 30.4863 30.6192C30.4863 31.1446 30.9121 31.5703 31.4374 31.5703H35.8103C35.96 33.4837 36.1692 35.3924 36.4376 37.2924C36.4409 37.3345 36.4462 37.3759 36.4547 37.4164C36.6522 38.8003 36.8796 40.1799 37.1398 41.553C38.5457 48.9724 40.8777 56.1985 44.0128 63.0663H5.58609ZM23.995 11.3918H37.1039C38.9311 11.3918 40.4176 9.90517 40.4176 8.07802C40.4176 7.57342 40.3042 7.09494 40.1017 6.66644H41.7107C43.5379 6.66644 45.0244 5.17991 45.0244 3.35275C45.0244 1.52559 43.538 0.0390625 41.7109 0.0390625H28.6019C26.7748 0.0390625 25.2883 1.52572 25.2883 3.35288C25.2883 3.85747 25.4016 4.33582 25.6042 4.76433H23.9951C22.168 4.76433 20.6814 6.25099 20.6814 8.07815C20.6814 9.9053 22.1678 11.3918 23.995 11.3918ZM23.995 6.66656H28.6019C29.1272 6.66656 29.5531 6.24084 29.5531 5.71545C29.5531 5.19005 29.1272 4.76433 28.6019 4.76433C27.8237 4.76433 27.1905 4.13114 27.1905 3.35288C27.1905 2.57448 27.8237 1.94129 28.6019 1.94129H41.7109C42.4891 1.94129 43.1223 2.57448 43.1223 3.35288C43.1223 4.13114 42.4891 4.76433 41.7109 4.76433H37.1039C36.5786 4.76433 36.1528 5.19005 36.1528 5.71545C36.1528 6.24084 36.5786 6.66656 37.1039 6.66656C37.8822 6.66656 38.5154 7.29975 38.5154 8.07815C38.5154 8.85654 37.8822 9.4896 37.1039 9.4896H23.995C23.2167 9.4896 22.5835 8.85641 22.5835 8.07802C22.5835 7.29962 23.2167 6.66656 23.995 6.66656ZM24.2553 35.5891C23.793 35.3235 23.2377 35.3175 22.7696 35.573C22.303 35.8279 22.0088 36.2967 21.9826 36.8272C21.9394 37.7002 21.762 38.5336 21.4555 39.3043C20.8992 40.7033 20.1663 41.2419 19.3747 42.4518C18.3319 44.0457 17.1875 46.7416 17.3948 49.0942C17.6968 52.5247 20.7242 54.9735 23.6444 56.4132C23.4641 56.9183 23.2654 57.4178 23.0448 57.91C22.8299 58.3894 23.0443 58.9522 23.5236 59.167C23.993 59.3774 24.5631 59.1733 24.7806 58.6883C25.086 58.007 25.3555 57.3132 25.5902 56.6095C27.4893 55.8136 30.4091 54.1201 31.6456 50.9278C32.5937 48.4804 32.3879 45.578 31.0661 42.7551C29.7227 39.8861 27.304 37.3412 24.2553 35.5891ZM29.8717 50.2406C29.4966 51.2088 28.554 52.8493 26.2517 54.1717C26.5498 52.7624 26.7101 51.3164 26.7299 49.8769L28.4404 47.8587C28.78 47.458 28.7305 46.8578 28.3297 46.5182C27.9289 46.1787 27.3287 46.2281 26.9891 46.6288L26.5941 47.0948C26.4527 45.8364 26.2039 44.5872 25.8466 43.3544C25.7003 42.8498 25.1727 42.5591 24.6684 42.7057C24.1638 42.8518 23.8734 43.3794 24.0196 43.884C24.5229 45.6208 24.7927 47.3929 24.8272 49.1765C24.2429 48.5059 23.5865 47.8984 22.8682 47.3681C22.4456 47.056 21.8502 47.1454 21.5381 47.5682C21.2261 47.9908 21.3156 48.5862 21.7382 48.8982C22.4651 49.4351 23.1182 50.0639 23.6792 50.7673C24.0455 51.2263 24.3709 51.7209 24.6547 52.2377C24.5511 53.0224 24.4 53.7985 24.2064 54.5642C22.0158 53.4396 19.4858 51.1561 19.2896 48.9275C19.1357 47.1794 20.021 44.9387 20.9665 43.4935C21.8096 42.2051 22.5575 41.6804 23.2231 40.0075C23.5319 39.2314 23.7357 38.4081 23.8317 37.5527C26.2966 39.0924 28.2413 41.2079 29.3434 43.5617C30.4429 45.91 30.6306 48.2819 29.8717 50.2406Z" fill="#4AAB3D"/>
</g>
<defs>
<clipPath id="clip0_3868_3518">
<rect width="65" height="65" fill="white"/>
</clipPath>
</defs>
</svg>
