<svg width="65" height="65" viewBox="0 0 65 65" fill="none" xmlns="http://www.w3.org/2000/svg">
<g clip-path="url(#clip0_3868_3532)">
<path d="M64.048 60.5512C61.2011 60.5512 59.7 61.276 58.3757 61.9154C57.1246 62.5196 55.9428 63.0902 53.5316 63.0902C51.1203 63.0902 49.9385 62.5196 48.6874 61.9154C47.3632 61.276 45.8622 60.5512 43.0151 60.5512C40.1684 60.5512 38.6674 61.276 37.3431 61.9154C36.092 62.5196 34.9103 63.0902 32.4992 63.0902C30.0883 63.0902 28.9066 62.5196 27.6555 61.9154C26.3312 61.276 24.8304 60.5512 21.9836 60.5512C19.1368 60.5512 17.6358 61.276 16.3116 61.9154C15.0606 62.5196 13.8789 63.0902 11.4678 63.0902C9.05671 63.0902 7.87503 62.5196 6.62403 61.9154C5.29979 61.276 3.79895 60.5512 0.952148 60.5512C0.426309 60.5512 0 60.9774 0 61.5033C0 62.0293 0.426309 62.4555 0.952148 62.4555C3.36324 62.4555 4.54492 63.0261 5.79592 63.6303C7.12017 64.2698 8.62101 64.9945 11.4678 64.9945C14.3146 64.9945 15.8154 64.2698 17.1397 63.6303C18.3908 63.0261 19.5725 62.4555 21.9836 62.4555C24.3947 62.4555 25.5764 63.0261 26.8274 63.6303C28.1516 64.2698 29.6524 64.9945 32.4991 64.9945C35.3459 64.9945 36.8469 64.2698 38.1711 63.6303C39.4222 63.0261 40.6039 62.4555 43.015 62.4555C45.4262 62.4555 46.608 63.0261 47.8592 63.6303C49.1834 64.2698 50.6844 64.9945 53.5314 64.9945C56.3785 64.9945 57.8795 64.2698 59.2037 63.6303C60.4548 63.0261 61.6366 62.4555 64.0479 62.4555C64.5737 62.4555 65 62.0293 65 61.5033C65 60.9774 64.5738 60.5512 64.048 60.5512ZM64.048 48.6549C61.2011 48.6549 59.7 49.3797 58.3757 50.0191C57.1246 50.6233 55.9428 51.194 53.5316 51.194C51.1203 51.194 49.9385 50.6233 48.6874 50.0191C47.4386 49.4161 46.0319 48.7374 43.4882 48.6621L45.8303 46.3199C46.2022 45.948 46.2022 45.3451 45.8303 44.9734C45.4585 44.6017 44.8556 44.6016 44.4839 44.9735L40.5944 48.8632C39.1974 49.1246 38.2303 49.5909 37.3433 50.0193C36.0921 50.6234 34.9105 51.1941 32.4994 51.1941C30.0884 51.1941 28.9067 50.6234 27.6556 50.0193C26.3313 49.3798 24.8305 48.655 21.9837 48.655C21.6666 48.655 21.3671 48.6644 21.0818 48.6813L13.4653 41.0648C15.0956 40.8244 16.166 40.3084 17.1399 39.838C18.3911 39.2338 19.5727 38.6632 21.9838 38.6632C24.3949 38.6632 25.5766 39.2338 26.8276 39.838C28.1519 40.4775 29.6527 41.2023 32.4994 41.2023C35.3462 41.2023 36.8471 40.4775 38.1714 39.838C39.4225 39.2338 40.6042 38.6632 43.0153 38.6632C45.4265 38.6632 46.6083 39.2338 47.8594 39.838C48.2386 40.0211 48.6324 40.2111 49.0681 40.3892L47.5909 41.8666C47.2191 42.2384 47.2191 42.8413 47.5909 43.2131C47.9628 43.5848 48.5657 43.5849 48.9374 43.2129L51.149 41.0012C51.8287 41.1258 52.6092 41.2023 53.5317 41.2023C56.3786 41.2023 57.8797 40.4775 59.204 39.838C60.4551 39.2338 61.6369 38.6632 64.0481 38.6632C64.5739 38.6632 65.0002 38.237 65.0002 37.711C65.0002 37.1851 64.5739 36.7589 64.0481 36.7589C61.2012 36.7589 59.7001 37.4837 58.3758 38.1231C57.1247 38.7273 55.9429 39.298 53.5317 39.298C53.2987 39.298 53.0804 39.2911 52.8693 39.2809L64.442 27.7078C64.8018 27.3481 65 26.8695 65 26.3604C65 25.8512 64.8018 25.3727 64.442 25.0131L60.9345 21.5055C60.5748 21.1457 60.0962 20.9475 59.587 20.9475C59.0779 20.9475 58.5993 21.1457 58.2396 21.5054L49.6126 30.1293L34.8658 15.3806L43.4896 6.75556C44.2262 6.02596 44.2225 4.78639 43.4896 4.06072L39.982 0.552881C39.2525 -0.183828 38.0162 -0.183447 37.2871 0.552881L29.924 7.91604C29.3909 6.18858 28.4428 4.60561 27.1281 3.29101C22.7401 -1.097 15.6 -1.097 11.212 3.29101C9.08629 5.41658 7.91565 8.24268 7.91565 11.2489C7.91565 14.2551 9.08629 17.0813 11.212 19.207C12.5513 20.5463 14.1478 21.4746 15.8434 21.9964L12.7187 25.1207C12.3468 25.4926 12.3468 26.0955 12.7187 26.4673C13.0905 26.8392 13.6933 26.8392 14.0653 26.4673L18.0869 22.4462C21.3641 22.7609 24.6613 21.6738 27.1282 19.207C29.2539 17.0813 30.4246 14.2552 30.4246 11.2489C30.4246 10.8832 30.4065 10.5202 30.3723 10.1608L38.6355 1.89935L42.1431 5.40884L33.5204 14.0328C33.1593 14.3925 32.9605 14.8715 32.9605 15.3814C32.9605 15.8911 33.1593 16.3701 33.5193 16.7287L48.265 31.4745C48.6248 31.8357 49.1038 32.0345 49.6135 32.0345C50.1234 32.0345 50.6022 31.8357 50.9609 31.4757L59.5879 22.8518L63.0956 26.3613L50.5567 38.9007C49.8579 38.6867 49.2798 38.4092 48.6875 38.1231C47.3633 37.4837 45.8623 36.7589 43.0153 36.7589C40.1685 36.7589 38.6675 37.4837 37.3433 38.1231C36.0921 38.7273 34.9105 39.298 32.4994 39.298C30.0884 39.298 28.9067 38.7273 27.6556 38.1231C26.3313 37.4837 24.8305 36.7589 21.9837 36.7589C19.1369 36.7589 17.6359 37.4837 16.3117 38.1231C15.1012 38.7078 13.9521 39.2594 11.6949 39.2945L7.81574 35.4154C7.07154 34.6713 7.07154 33.4603 7.81574 32.7159L11.075 29.4572C11.4469 29.0853 11.447 28.4824 11.0751 28.1107C10.7034 27.7389 10.1005 27.7388 9.72867 28.1106L6.46928 31.3695C4.98266 32.8562 4.98266 35.2753 6.46928 36.7621L8.65668 38.9495C7.88277 38.7301 7.26197 38.4313 6.62416 38.1233C5.29991 37.4838 3.79907 36.759 0.952275 36.759C0.426436 36.759 0.000126953 37.1852 0.000126953 37.7112C0.000126953 38.2371 0.426436 38.6633 0.952275 38.6633C3.36337 38.6633 4.54505 39.234 5.79604 39.8381C7.02901 40.4336 8.41585 41.1026 10.8991 41.192L18.7545 49.0475C17.7724 49.3141 17.0169 49.6788 16.3116 50.0194C15.0606 50.6236 13.8789 51.1942 11.4678 51.1942C9.05671 51.1942 7.87503 50.6236 6.62403 50.0194C5.29979 49.3799 3.79895 48.6552 0.952148 48.6552C0.426309 48.6552 0 49.0813 0 49.6073C0 50.1333 0.426309 50.5595 0.952148 50.5595C3.36324 50.5595 4.54492 51.1301 5.79592 51.7343C7.12017 52.3737 8.62101 53.0985 11.4678 53.0985C14.3146 53.0985 15.8154 52.3737 17.1397 51.7343C18.0739 51.2831 18.97 50.8509 20.3677 50.6608L28.2327 58.5258C28.976 59.269 29.9526 59.6407 30.929 59.6407C31.9054 59.6407 32.8819 59.269 33.6252 58.5256L41.5022 50.6482C41.9504 50.592 42.4477 50.5595 43.015 50.5595C45.4262 50.5595 46.608 51.1301 47.8592 51.7343C49.1834 52.3737 50.6844 53.0985 53.5314 53.0985C56.3785 53.0985 57.8795 52.3737 59.2037 51.7343C60.4548 51.1301 61.6366 50.5595 64.0479 50.5595C64.5737 50.5595 65 50.1333 65 49.6073C65 49.0813 64.5738 48.6549 64.048 48.6549ZM9.81995 11.2489C9.81995 8.75139 10.7925 6.40339 12.5585 4.63734C15.9592 1.23665 21.3874 0.99252 25.0741 3.99813L11.9192 17.1531C10.5596 15.4897 9.81995 13.4263 9.81995 11.2489ZM25.7816 17.8604C22.3633 21.2786 16.9349 21.4916 13.2658 18.4996L26.4209 5.34473C27.7805 7.00819 28.5201 9.07169 28.5201 11.2489C28.5201 13.7465 27.5476 16.0945 25.7816 17.8604ZM32.2789 57.1789C31.5345 57.9232 30.3235 57.923 29.5793 57.1789L22.9987 50.5983C24.7523 50.7348 25.7664 51.2218 26.8275 51.7342C28.1517 52.3736 29.6526 53.0984 32.4992 53.0984C34.7652 53.0984 36.1781 52.6392 37.3283 52.1294L32.2789 57.1789Z" fill="#4AAB3D"/>
</g>
<defs>
<clipPath id="clip0_3868_3532">
<rect width="65" height="65" fill="white"/>
</clipPath>
</defs>
</svg>
